<svg width="24" height="26" viewBox="0 0 24 26" fill="none" xmlns="http://www.w3.org/2000/svg">
<path d="M12 15.5C11.6458 15.5 11.3488 15.38 11.1088 15.14C10.8688 14.9 10.7492 14.6033 10.75 14.25C10.75 13.8958 10.87 13.5988 11.11 13.3588C11.35 13.1188 11.6467 12.9992 12 13C12.3542 13 12.6513 13.12 12.8913 13.36C13.1313 13.6 13.2508 13.8967 13.25 14.25C13.25 14.6042 13.13 14.9013 12.89 15.1413C12.65 15.3813 12.3533 15.5008 12 15.5ZM7 15.5C6.64584 15.5 6.34875 15.38 6.10875 15.14C5.86875 14.9 5.74917 14.6033 5.75 14.25C5.75 13.8958 5.87 13.5988 6.11 13.3588C6.35 13.1188 6.64667 12.9992 7 13C7.35417 13 7.65125 13.12 7.89125 13.36C8.13125 13.6 8.25084 13.8967 8.25 14.25C8.25 14.6042 8.13 14.9013 7.89 15.1413C7.65 15.3813 7.35334 15.5008 7 15.5ZM17 15.5C16.6458 15.5 16.3488 15.38 16.1088 15.14C15.8688 14.9 15.7492 14.6033 15.75 14.25C15.75 13.8958 15.87 13.5988 16.11 13.3588C16.35 13.1188 16.6467 12.9992 17 13C17.3542 13 17.6513 13.12 17.8913 13.36C18.1313 13.6 18.2508 13.8967 18.25 14.25C18.25 14.6042 18.13 14.9013 17.89 15.1413C17.65 15.3813 17.3533 15.5008 17 15.5ZM12 20.5C11.6458 20.5 11.3488 20.38 11.1088 20.14C10.8688 19.9 10.7492 19.6033 10.75 19.25C10.75 18.8958 10.87 18.5988 11.11 18.3588C11.35 18.1188 11.6467 17.9992 12 18C12.3542 18 12.6513 18.12 12.8913 18.36C13.1313 18.6 13.2508 18.8967 13.25 19.25C13.25 19.6042 13.13 19.9013 12.89 20.1413C12.65 20.3813 12.3533 20.5008 12 20.5ZM7 20.5C6.64584 20.5 6.34875 20.38 6.10875 20.14C5.86875 19.9 5.74917 19.6033 5.75 19.25C5.75 18.8958 5.87 18.5988 6.11 18.3588C6.35 18.1188 6.64667 17.9992 7 18C7.35417 18 7.65125 18.12 7.89125 18.36C8.13125 18.6 8.25084 18.8967 8.25 19.25C8.25 19.6042 8.13 19.9013 7.89 20.1413C7.65 20.3813 7.35334 20.5008 7 20.5ZM17 20.5C16.6458 20.5 16.3488 20.38 16.1088 20.14C15.8688 19.9 15.7492 19.6033 15.75 19.25C15.75 18.8958 15.87 18.5988 16.11 18.3588C16.35 18.1188 16.6467 17.9992 17 18C17.3542 18 17.6513 18.12 17.8913 18.36C18.1313 18.6 18.2508 18.8967 18.25 19.25C18.25 19.6042 18.13 19.9013 17.89 20.1413C17.65 20.3813 17.3533 20.5008 17 20.5ZM3.25 25.5C2.5625 25.5 1.97375 25.255 1.48375 24.765C0.993752 24.275 0.749169 23.6867 0.750002 23V5.5C0.750002 4.8125 0.995002 4.22375 1.485 3.73375C1.975 3.24375 2.56334 2.99917 3.25 3H4.5V1.75C4.5 1.39584 4.62 1.09875 4.86 0.858754C5.1 0.618754 5.39667 0.499171 5.75 0.500004C6.10417 0.500004 6.40125 0.620004 6.64125 0.860004C6.88125 1.1 7.00084 1.39667 7 1.75V3H17V1.75C17 1.39584 17.12 1.09875 17.36 0.858754C17.6 0.618754 17.8967 0.499171 18.25 0.500004C18.6042 0.500004 18.9013 0.620004 19.1413 0.860004C19.3813 1.1 19.5008 1.39667 19.5 1.75V3H20.75C21.4375 3 22.0263 3.245 22.5163 3.735C23.0063 4.225 23.2508 4.81334 23.25 5.5V23C23.25 23.6875 23.005 24.2763 22.515 24.7663C22.025 25.2563 21.4367 25.5008 20.75 25.5H3.25ZM3.25 23H20.75V10.5H3.25V23ZM3.25 8H20.75V5.5H3.25V8Z" fill="#202020"/>
</svg>
