<svg width="120" height="60" viewBox="0 0 120 60" fill="none" xmlns="http://www.w3.org/2000/svg">
 <g clip-path="url(#clip0_1337_11802)">
  <path fill-rule="evenodd" clip-rule="evenodd" d="M11.765 14.9423C12.1359 16.4288 12.0817 17.6782 11.8051 18.9948C11.9287 18.8378 11.9896 18.7642 12.074 18.5918C12.1122 18.5137 12.132 18.4573 12.1699 18.375L12.4491 17.6811C12.6845 17.0074 13.0086 15.8987 13.1469 15.2172C13.2274 14.8208 13.2864 14.6208 13.3411 14.2003C13.5852 12.3223 13.5916 10.4537 12.5281 8.82924C12.2813 8.45232 11.8192 7.93519 11.5196 7.70147L10.9547 7.28376C10.5289 6.94817 9.53452 6.54922 9.012 6.36696C8.70951 6.26147 7.92601 6.00378 7.63459 5.93902C6.78627 5.75058 6.02263 5.5207 5.24264 5.13137C4.54214 4.78159 4.31014 4.47193 3.9306 3.80231C4.15052 4.84435 4.69229 5.65895 5.20886 6.04717C5.38294 6.17797 5.45627 6.2193 5.6615 6.35288C5.86324 6.48418 6.98161 6.89076 7.20943 6.97594C7.93107 7.24576 8.36402 7.49406 8.96972 7.75916C9.19398 7.85719 9.48684 8.03945 9.69313 8.16018C10.0327 8.3589 10.8807 9.01779 10.9713 9.46131C10.8245 9.29323 10.7389 9.22069 10.241 8.84059C9.66298 8.51758 8.93228 8.27373 8.30889 8.05631C7.38736 7.73474 6.41987 7.46141 5.48604 7.17077C4.08009 6.76742 2.59408 5.99437 2.32565 4.30196C2.15802 3.24485 2.52092 2.42117 2.85189 1.62215L3.15722 1.05796C3.20885 0.969053 3.22393 0.951971 3.27884 0.847656C2.90141 1.13095 1.94127 2.30317 1.72585 2.76044C1.28845 3.68898 1.15237 4.2431 1.15482 5.25315C1.15632 5.8441 1.22314 6.17018 1.48106 6.71768C1.71305 7.21021 1.88819 7.48822 2.20476 7.85113C2.61578 8.3223 3.11461 8.64248 3.62272 8.93439L4.66832 9.49285C4.84835 9.57881 5.026 9.65458 5.2013 9.73492L6.286 10.2208C6.6389 10.3595 7.00013 10.5272 7.36671 10.6788C8.09146 10.9786 8.33999 11.0837 8.98557 11.4067L9.15142 11.4948C9.15626 11.4974 9.16333 11.501 9.16817 11.5036L9.9505 12.0695C10.102 12.203 10.2489 12.3257 10.4039 12.4921C10.957 13.086 11.5142 13.9372 11.765 14.9423Z" fill="#F29022" stroke="black" stroke-width="0.447517" stroke-miterlimit="22.9256"/>
  <path fill-rule="evenodd" clip-rule="evenodd" d="M12.1718 18.9958C12.322 18.5407 12.3162 18.5049 12.3483 18.0839C12.4208 17.1353 12.4355 16.1035 12.3241 15.1547C12.2817 14.7924 12.2553 14.5103 12.18 14.148C12.1113 13.8168 12.0014 13.4363 11.8775 13.0962C11.304 11.5224 10.3485 10.8373 9.05748 10.4802C8.6697 10.373 7.82879 10.2994 7.39178 10.3155C7.12512 10.3252 6.80472 10.3335 6.53929 10.3325C5.82872 10.3299 4.65677 10.2999 4.15005 9.58936C4.39251 10.2571 4.99131 10.7398 5.42331 10.9072C5.90811 11.0951 6.41021 11.1137 6.91587 11.161L8.41084 11.4019C8.85475 11.5015 9.57283 11.6875 9.81762 12.1486C9.52003 11.9509 9.34812 11.8768 8.99751 11.8458L5.20889 11.6284C3.8317 11.4799 2.8463 10.6451 2.91223 8.81598C2.92186 8.54972 2.95262 8.38915 2.982 8.1536C2.99802 8.0253 3.02606 7.95003 3.05243 7.82947L3.13522 7.50879C2.75684 8.00249 2.40384 9.12125 2.36768 9.83466C2.36284 9.92907 2.35894 10.0179 2.35889 10.1031C2.35844 10.6395 2.51889 11.4674 2.81526 11.9081C3.0679 12.2838 3.29594 12.5659 3.60928 12.7861C4.0296 13.0815 4.80048 13.3885 5.3176 13.4634C6.51792 13.6575 8.10212 13.8037 9.23434 14.153C10.6365 14.5854 11.7382 16.1518 12.0222 17.8214C12.0583 18.0333 12.0875 18.21 12.118 18.4109C12.1484 18.6114 12.1361 18.8154 12.1718 18.9958Z" fill="#E95718" stroke="black" stroke-width="0.447517" stroke-miterlimit="22.9256"/>
  <path fill-rule="evenodd" clip-rule="evenodd" d="M15.3298 19.0844C15.1812 21.1932 14.8926 25.2856 14.5958 29.4958C14.8441 29.6695 15.0924 29.8432 15.2554 30.116C15.4184 30.3889 15.4961 30.761 15.5738 31.133C16.1135 31.5992 16.2607 31.82 16.273 32.1144C16.2852 32.4088 16.1626 32.7768 16.138 33.2429C16.1135 33.709 16.1871 34.2733 16.2116 34.6904C16.2362 35.1075 16.2116 35.3773 16.1135 35.7699C16.0154 36.1624 15.8437 36.6776 15.7946 37.2541C15.7455 37.8306 15.8191 38.4685 15.7117 38.7975C15.6361 39.029 15.471 39.1076 15.2729 39.1362C15.1894 39.1483 15.1001 39.1515 15.0092 39.1536C14.7024 39.1605 14.4164 39.1601 14.1442 39.052C13.911 42.3826 13.4393 46.0424 13.3229 47.7075C13.2064 49.3737 13.2063 49.3737 12.6298 49.386C12.0532 49.3982 10.9001 49.4228 10.3359 49.3982C9.77159 49.3737 9.79613 49.3001 9.67902 48.0077C9.56185 46.7153 9.30303 44.2041 9.04422 41.6929C8.93501 41.9143 8.82624 42.138 8.75347 42.2958C8.60626 42.6147 8.60626 42.6637 8.54495 42.9091C8.48358 43.1544 8.36098 43.596 8.09109 43.8781C7.82121 44.1603 7.40416 44.2829 7.19564 44.3443C6.98707 44.4056 6.98707 44.4056 7.06067 44.8963C7.13428 45.3869 7.28149 46.3683 7.56361 47.3742C7.84574 48.38 8.26284 49.4104 8.81484 50.6371C9.3668 51.8637 10.0538 53.2867 10.8511 54.7464C11.6484 56.2061 12.5562 57.7027 13.01 58.451C13.4639 59.1992 13.4639 59.1992 13.0959 59.2728C12.7279 59.3464 11.9919 59.4936 11.1578 59.5918C10.3237 59.6899 9.39138 59.739 8.55725 59.7635C7.72312 59.7881 6.98707 59.7881 5.94442 59.7022C4.90176 59.6164 3.5524 59.4446 2.20309 59.2728C2.00681 57.4328 1.81053 55.5929 1.57748 53.9368C1.34437 52.2808 1.07454 50.8088 0.915092 49.6067C0.755587 48.4045 0.706514 47.4723 0.669739 46.8345C0.632909 46.1965 0.608375 45.8531 0.534771 45.4483C0.461166 45.0435 0.338548 44.5774 0.289478 44.0131C0.240408 43.4488 0.264945 42.7864 0.37538 42.2344C0.48576 41.6824 0.681984 41.2408 0.816954 40.5171C0.951868 39.7933 1.02547 38.7874 1.3812 37.4994C1.73693 36.2114 2.37483 34.6413 2.79193 33.5741C3.20897 32.5069 3.40519 31.9426 3.51563 31.5378C3.62601 31.133 3.65054 30.8877 3.81004 30.5565C3.96949 30.2253 4.26386 29.8082 4.4356 29.3176C4.60735 28.8269 4.65641 28.2626 4.76685 27.7106C4.87723 27.1586 5.04892 26.6189 5.18389 26.2386C5.31881 25.8583 5.41694 25.6376 5.49055 25.4781C5.56415 25.3186 5.61322 25.2205 5.96895 24.9629C6.32468 24.7053 6.98712 24.2882 7.5759 23.9202C7.34285 21.5855 7.10975 19.2507 6.99325 18.0834C6.8767 16.916 6.8767 16.916 7.07298 16.8547C7.2692 16.7933 7.66175 16.6707 8.3119 16.548C8.962 16.4253 9.86973 16.3027 10.6916 16.2659C11.5135 16.2291 12.2495 16.2781 13.0346 16.3886C13.8196 16.4989 14.6538 16.6706 15.0709 16.7565C15.4879 16.8424 15.4879 16.8424 15.3298 19.0844Z" fill="white"/>
  <path fill-rule="evenodd" clip-rule="evenodd" d="M7.01779 44.5689C7.1067 44.4569 7.53581 44.3333 7.84937 44.0724C8.12471 43.8433 8.28905 43.4772 8.35725 43.3402C8.50324 43.0472 8.62842 42.6714 8.78915 42.2832C8.94982 41.8949 9.14605 41.4943 9.29643 41.2393C9.44681 40.9843 9.55135 40.8751 9.66484 40.6635C9.77828 40.4518 9.90068 40.1378 9.95882 39.8969C10.0169 39.6559 10.0106 39.4879 10.0771 39.2907C10.1436 39.0934 10.2828 38.8668 10.3554 38.6713C10.428 38.4757 10.4339 38.3112 10.4092 38.1308C10.3844 37.9504 10.329 37.7542 10.2116 37.5443C10.0941 37.3343 9.91453 37.1108 9.42 37.0112C8.92546 36.9116 8.11586 36.9362 7.14682 37.7458C6.17772 38.5554 5.04916 40.1501 4.42355 42.1128C3.79794 44.0754 3.67532 46.4061 3.93908 48.4792C4.20279 50.5522 4.85288 52.3677 5.94972 54.1927C7.04651 56.0177 8.58992 57.8522 9.36169 58.7694C10.1334 59.6867 10.1334 59.6867 10.1334 59.6867C10.5858 59.6409 11.0382 59.5952 11.4833 59.5358C11.9283 59.4765 12.3662 59.4034 12.6743 59.3439C12.9824 59.2843 13.1608 59.2382 13.2414 59.1704C13.322 59.1026 13.3049 59.0132 12.6746 57.8476C12.0443 56.682 10.801 54.4402 9.96538 52.8413C9.12975 51.2423 8.70181 50.2862 8.3695 49.4822C8.03714 48.6781 7.80041 48.0261 7.59823 47.2871C7.39605 46.5481 7.22837 45.7222 7.13741 45.2547C7.04644 44.7871 7.03209 44.678 7.01779 44.5689Z" fill="#999999" stroke="black" stroke-width="0.126847" stroke-miterlimit="22.9256"/>
  <path fill-rule="evenodd" clip-rule="evenodd" d="M10.4497 59.0857C10.3865 58.5306 9.61536 57.4696 8.78818 56.3256C7.96101 55.1817 7.07781 53.9551 6.47673 52.7898C5.87566 51.6244 5.55676 50.5204 5.27463 49.441C4.99245 48.3615 4.74715 47.3065 4.69808 46.5215C4.64901 45.7364 4.79623 45.2212 4.98027 44.939C5.16425 44.6569 5.385 44.6079 5.3973 44.5342C5.40954 44.4606 5.21332 44.3625 5.05387 44.1908C4.89437 44.019 4.7717 43.7737 4.75946 43.5284C4.74716 43.283 4.8453 43.0377 5.16425 42.9028C5.48315 42.7678 6.02292 42.7433 6.2928 42.7311C6.56263 42.7188 6.56263 42.7188 6.2805 42.5839C5.99838 42.4489 5.43408 42.1791 5.31146 41.7497C5.18878 41.3204 5.50769 40.7316 5.91249 39.9833C6.31728 39.235 6.80798 38.3273 7.34769 37.7998C7.8874 37.2724 8.47624 37.1252 8.97206 37.1483C9.46782 37.1713 9.88715 37.2959 10.2274 37.6226C10.5676 37.9493 10.8535 38.3946 11.2055 38.525C11.5576 38.6554 12.1153 38.4482 12.3859 38.3405C12.6565 38.2328 12.6817 38.0328 12.7989 37.7652C12.9161 37.4977 13.0029 37.1163 13.0462 36.9257C13.0895 36.735 13.0895 36.735 12.2348 36.5793C11.38 36.4235 9.6705 36.1119 8.61951 35.8948C7.56851 35.6777 7.17595 35.555 6.82022 35.6655C6.4645 35.7758 6.1456 36.1193 5.69173 36.7939C5.23786 37.4686 4.64902 38.4745 4.04799 39.7625C3.44692 41.0505 2.83354 42.6206 2.46558 43.6143C2.09755 44.6079 1.97487 45.0249 1.69397 45.2345C1.41302 45.4441 0.973842 45.4462 0.863463 45.2499C0.753028 45.0537 0.971447 44.659 1.15426 44.4494C1.33702 44.2398 1.48418 44.2153 1.33129 44.0247C1.17841 43.8341 0.725429 43.4774 0.497827 43.3668C0.270226 43.2562 0.268057 43.3916 0.589793 46.0836C0.911529 48.7756 1.55728 54.0242 1.88013 56.6485C2.20298 59.2728 2.20298 59.2728 2.51442 59.3116C2.82581 59.3505 3.4487 59.4281 4.28984 59.5115C5.13093 59.5947 6.19038 59.6837 7.04893 59.7225C7.90749 59.7614 8.5652 59.7502 9.21652 59.7201C9.86783 59.6899 10.5128 59.6408 10.4497 59.0857Z" fill="#808080"/>
  <path fill-rule="evenodd" clip-rule="evenodd" d="M4.90064 29.0446C4.89941 28.5345 5.36312 27.7514 5.51189 27.1743C5.6606 26.5971 5.49442 26.2259 5.66617 26.0419C5.83786 25.8579 6.34758 25.8611 6.92134 25.7278C7.4951 25.5945 8.13295 25.3247 8.66043 25.0671C9.1879 24.8094 9.60494 24.5641 10.0207 24.3058C10.4364 24.0475 10.8508 23.7761 11.0701 23.7271C11.2893 23.678 11.3135 23.8512 11.4728 23.9178C11.632 23.9845 11.9264 23.9446 12.2849 23.8407C12.6433 23.7366 13.0657 23.5686 13.2787 23.4761C13.4918 23.3836 13.4954 23.3667 13.4197 23.4928C13.3439 23.619 13.1888 23.888 12.9315 24.1621C12.6741 24.4362 12.3146 24.7153 11.9325 24.9477C11.5503 25.1801 11.1456 25.3659 10.6856 25.6428C10.2256 25.9197 9.71037 26.2877 9.26207 26.5639C8.81371 26.84 8.43227 27.0242 8.32801 27.5108C8.2237 27.9974 8.39667 28.7863 8.46883 29.1194C8.54098 29.4525 8.54989 29.6094 8.22615 29.6855C7.90241 29.7616 7.22021 29.8798 6.77864 30.0168C6.33706 30.1538 6.09846 30.0299 5.73321 29.9109C5.36797 29.7919 4.90186 29.5547 4.90064 29.0446Z" fill="#999999"/>
  <path fill-rule="evenodd" clip-rule="evenodd" d="M7.51236 31.3967C7.73495 31.3006 8.33553 31.223 9.16944 31.0615C10.0033 30.9 11.0706 30.6547 11.6533 30.4707C12.2359 30.2867 12.3341 30.164 12.5488 30.2499C12.7634 30.3358 13.0946 30.6301 13.5423 30.9491C13.99 31.268 14.5543 31.6115 14.9591 31.8507C15.3639 32.0899 15.6093 32.2248 15.7013 32.6112C15.7933 32.9976 15.7319 33.6355 15.6958 34.0346C15.6596 34.4338 15.6486 34.5941 15.393 34.4014C15.1374 34.2085 14.6374 33.6625 14.1962 33.1971C13.7549 32.7316 13.3724 32.3467 13.0844 32.1306C12.7963 31.9145 12.6027 31.8672 12.3239 31.8443C12.0451 31.8213 11.6811 31.8226 11.0536 31.8372C10.4261 31.8516 9.53497 31.8792 8.91553 31.8621C8.29609 31.8451 7.94826 31.7834 7.69668 31.6954C7.4451 31.6073 7.28971 31.4928 7.51236 31.3967Z" fill="#999999"/>
  <path fill-rule="evenodd" clip-rule="evenodd" d="M8.39132 33.7879C8.40923 33.7243 8.599 33.7412 9.04652 33.7927C9.49405 33.8441 10.1994 33.93 10.7821 33.973C11.3648 34.0159 11.8248 34.0159 12.1529 33.8748C12.481 33.7337 12.6773 33.4515 12.8184 33.3994C12.9594 33.3473 13.0453 33.5252 13.1404 33.743C13.2354 33.9607 13.3397 34.2183 13.582 34.4728C13.8242 34.7273 14.2045 34.9788 14.5388 35.1413C14.873 35.3039 15.1613 35.3775 15.3668 35.4848C15.5723 35.5922 15.6949 35.7332 15.7011 35.9939C15.7072 36.2545 15.5968 36.6348 15.4496 36.9108C15.3024 37.1868 15.1184 37.3586 14.9927 37.5181C14.8669 37.6775 14.7995 37.8247 14.812 38.0952C14.8244 38.3658 14.9168 38.7597 14.8866 38.9551C14.8564 39.1503 14.7036 39.147 14.5177 39.1107C14.3318 39.0744 14.0837 39.0756 13.8893 38.9327C13.6949 38.7899 13.5005 38.5338 13.3757 38.2658C13.251 37.9979 13.2248 37.6474 13.1938 37.2972C13.1628 36.9471 13.1808 36.5664 13.1446 36.2758C13.1083 35.9852 13.018 35.7846 12.9028 35.6258C12.7877 35.4668 12.6479 35.3495 12.4627 35.2444C12.2774 35.1393 12.0466 35.0464 11.7405 34.9639C11.4343 34.8815 11.0526 34.8095 10.6946 34.7367C10.3366 34.6639 10.0023 34.5904 9.6707 34.4909C9.339 34.3913 9.00998 34.2658 8.76858 34.1309C8.52712 33.9959 8.37334 33.8516 8.39132 33.7879Z" fill="#999999"/>
  <path fill-rule="evenodd" clip-rule="evenodd" d="M2.99278 35.0155C3.33009 34.5371 3.98024 33.4024 4.3728 32.786C4.7653 32.1696 4.90027 32.0715 5.09043 31.9641C5.28053 31.8568 5.52583 31.7403 5.5013 31.6084C5.47676 31.4765 5.1824 31.3294 4.98306 31.2343C4.78372 31.1392 4.67945 31.0962 4.57825 31.1238C4.47706 31.1514 4.37891 31.2496 4.21946 31.4857C4.05996 31.7219 3.83921 32.096 3.63375 32.5468C3.42823 32.9976 3.23812 33.5251 3.06944 33.9698C2.90075 34.4144 2.75355 34.7763 2.69224 35.0462C2.63087 35.316 2.65541 35.4939 2.99278 35.0155Z" fill="#999999"/>
  <path fill-rule="evenodd" clip-rule="evenodd" d="M4.00134 35.3238C3.98293 35.0355 4.26511 34.3486 4.49816 33.8794C4.73122 33.4102 4.91525 33.1587 5.07782 33.0084C5.24033 32.8582 5.38137 32.8091 5.57459 32.7877C5.76781 32.7662 6.0131 32.7723 6.21872 32.7969C6.42435 32.8214 6.59031 32.8643 6.54736 32.9564C6.50441 33.0483 6.25266 33.1894 6.01638 33.4194C5.78005 33.6494 5.55923 33.9683 5.33536 34.3118C5.11148 34.6553 4.88454 35.0232 4.6116 35.2625C4.33866 35.5016 4.01976 35.6121 4.00134 35.3238Z" fill="#999999"/>
  <path fill-rule="evenodd" clip-rule="evenodd" d="M7.01205 44.791C6.97004 44.8532 6.91785 45.2467 6.91018 45.7164C6.90244 46.186 6.93928 46.7319 7.03436 47.2256C7.12938 47.7193 7.28271 48.1609 7.45445 48.6547C7.6262 49.1484 7.8163 49.6942 8.20925 50.379C8.6022 51.0638 9.198 51.8875 9.49587 52.2994C9.79374 52.7112 9.79373 52.7112 9.55762 52.1985C9.32145 51.6857 8.84917 50.6603 8.52048 49.908C8.19179 49.1557 8.00668 48.6766 7.8439 48.1932C7.68105 47.7097 7.54047 47.2219 7.42314 46.7335C7.3058 46.2452 7.21167 45.7562 7.14874 45.3771C7.08577 44.9981 7.054 44.7289 7.01205 44.791Z" fill="#999999"/>
  <path fill-rule="evenodd" clip-rule="evenodd" d="M11.6795 23.3655C11.9155 23.1734 12.5661 22.842 12.8914 22.6764C13.2167 22.5107 13.2167 22.5107 13.2203 22.5747C13.224 22.6387 13.2314 22.7668 13.232 22.895C13.2326 23.0231 13.2265 23.1514 13.1347 23.2485C13.0429 23.3456 12.8652 23.4114 12.6285 23.4753C12.3918 23.5391 12.096 23.6009 11.8589 23.6055C11.6217 23.6101 11.4434 23.5575 11.6795 23.3655Z" fill="#999999"/>
  <path fill-rule="evenodd" clip-rule="evenodd" d="M10.4804 37.9551C10.4157 38.0063 10.4438 38.2148 10.4557 38.3475C10.4675 38.4802 10.4632 38.537 10.422 38.6403C10.3809 38.7437 10.3029 38.8934 10.2175 39.013C10.1321 39.1325 10.0393 39.2221 10.0043 39.32C9.96933 39.4179 9.99208 39.5244 10.007 39.652C10.022 39.7796 10.0291 39.9283 10.0182 40.0054C10.0072 40.0825 9.97828 40.0879 10.1651 40.0366C10.3519 39.9852 10.7544 39.8771 11.1138 39.741C11.4732 39.6049 11.7896 39.441 12.0151 39.2795C12.2405 39.118 12.3751 38.9591 12.4873 38.7463C12.5994 38.5334 12.689 38.2665 12.7423 38.113C12.7956 37.9594 12.8126 37.9192 12.7472 37.976C12.6817 38.0328 12.5339 38.1866 12.3406 38.3001C12.1474 38.4135 11.9088 38.4865 11.6544 38.4491C11.4001 38.4117 11.1301 38.2641 10.9163 38.1371C10.7026 38.0102 10.5451 37.904 10.4804 37.9551Z" fill="#808080"/>
  <path fill-rule="evenodd" clip-rule="evenodd" d="M9.01001 41.7995L9.89321 49.3988L11.862 49.4356L12.3036 39.1683L10.9972 39.9411L9.96682 40.1067L9.65398 40.7691L9.01001 41.7995Z" fill="#808080"/>
  <path fill-rule="evenodd" clip-rule="evenodd" d="M8.60475 29.5816L8.40234 27.208L10.4815 25.7175L12.0639 24.9263L12.9287 24.2823L12.7815 28.9008L11.9903 28.772L8.60475 29.5816Z" fill="#808080"/>
  <path fill-rule="evenodd" clip-rule="evenodd" d="M6.91455 17.0607L7.11694 16.8032L9.67454 16.3615L12.8025 16.3064L12.8761 22.0104L12.269 21.8264L10.4474 22.3968L8.58893 23.28L7.59535 23.832L6.91455 17.0607Z" fill="#808080"/>
  <path fill-rule="evenodd" clip-rule="evenodd" d="M7.03223 17.7188C7.1559 17.532 8.39421 17.3726 8.68808 17.3252C9.06834 17.2638 9.62035 17.184 10.2184 17.1503C10.8164 17.1166 11.4604 17.1289 12.1504 17.1687C12.8404 17.2086 13.5764 17.2761 14.1223 17.3405C14.6681 17.4049 15.0239 17.4662 15.2079 17.4969C15.3918 17.5275 15.4041 17.5275 15.3888 17.7729C15.3734 18.0182 15.3305 18.5089 15.3183 18.7603C15.306 19.0118 15.3244 19.0241 15.0791 18.9965C14.8337 18.9689 14.3247 18.9014 13.8279 18.8524C13.3311 18.8033 12.8465 18.7726 12.2638 18.7603C11.6812 18.7481 11.0004 18.7542 10.3717 18.7788C9.74303 18.8033 9.16648 18.8462 8.65436 18.9167C8.14219 18.9873 7.6945 19.0854 7.47062 19.1345C7.24675 19.1836 7.24675 19.1836 7.21304 18.926C7.20058 18.8308 7.02121 17.7354 7.03223 17.7188Z" fill="#333333"/>
  <path d="M7.08526 32.9117C7.47777 32.9485 7.7476 33.1202 7.94388 33.341C8.14016 33.5618 8.26283 33.8317 8.53271 34.0402C8.80254 34.2488 9.21969 34.396 9.89432 34.58C10.5689 34.764 11.6668 34.8376 12.2434 35.0952C12.8199 35.3528 13.0592 35.684 13.1695 36.0398C13.2799 36.3955 13.0959 36.9229 13.1449 37.3277C13.194 37.7325 13.2922 38.1251 13.4516 38.4264C13.6109 38.7278 13.8708 38.9438 14.1436 39.052C14.4164 39.1601 14.7024 39.1605 15.0092 39.1536C15.3159 39.1466 15.6043 39.1265 15.7117 38.7975C15.8191 38.4685 15.7455 37.8306 15.7946 37.2541C15.8437 36.6776 16.0154 36.1624 16.1135 35.7699M16.1135 35.7699C16.2116 35.3773 16.2362 35.1075 16.2116 34.6904C16.1871 34.2733 16.1135 33.709 16.138 33.2429C16.1626 32.7768 16.2852 32.4088 16.273 32.1144C16.2607 31.82 16.1135 31.5992 15.5738 31.133M16.1135 35.7699C16.1453 35.5914 16.1772 35.4129 15.6375 34.7546C15.0977 34.0963 13.9864 32.9581 13.4308 32.3891C12.8751 31.82 12.8751 31.82 12.409 31.82C11.9428 31.82 11.0106 31.82 10.2255 31.8445C9.44045 31.869 8.80255 31.9181 8.38551 31.9059C7.96842 31.8936 7.77218 31.82 7.60044 31.7218C7.4287 31.6237 7.51548 31.6881 7.36827 31.5654M15.5738 31.133C15.034 30.6669 14.1018 29.9554 13.4884 29.477C12.8751 28.9986 12.5807 28.7533 12.0778 28.7411C11.5748 28.7288 10.8634 28.9495 10.25 29.1213C9.63667 29.293 9.12149 29.4157 8.56948 29.5752M15.5738 31.133C15.4961 30.761 15.4184 30.3889 15.2554 30.116C15.0924 29.8432 14.8441 29.6695 14.5958 29.4958M8.56948 29.5752C8.01748 29.7346 7.42865 29.9309 6.88893 30.0045C6.34922 30.0781 5.85852 30.029 5.83404 30.029C5.8095 30.029 6.25107 30.0781 6.77855 30.0168C7.30602 29.9554 7.9194 29.7837 8.22606 29.6855C8.53272 29.5874 8.48926 29.5662 8.48364 29.2071C8.44698 26.8528 7.74459 27.6565 9.1951 26.6557C9.64358 26.3463 10.0538 26.0056 10.2623 25.8216C10.4708 25.6376 10.4953 25.6376 10.7407 25.5517C10.986 25.4658 11.4522 25.2941 11.955 24.9944C12.4579 24.6947 12.9976 24.267 13.2735 23.8661C13.5495 23.4652 13.5617 23.0911 13.4637 22.7897C13.3656 22.4884 13.1571 22.2597 12.9916 22.1086C12.8261 21.9575 12.7034 21.8839 12.4335 21.8839C12.1636 21.8839 11.7466 21.9575 11.3418 22.0925C10.937 22.2274 10.5444 22.4236 10.1887 22.5709C9.83296 22.7181 9.51405 22.8162 9.09702 23.0248C8.67992 23.2333 8.16469 23.5522 7.5759 23.9202M8.56948 29.5752C8.57015 28.7084 8.3864 28.0769 8.38706 27.2102M7.5759 23.9202C6.98712 24.2882 6.32468 24.7053 5.96895 24.9629C5.61322 25.2205 5.56415 25.3186 5.49055 25.4781C5.41694 25.6376 5.31881 25.8583 5.18389 26.2386C5.04892 26.6189 4.87723 27.1586 4.76685 27.7106C4.65641 28.2626 4.60735 28.8269 4.4356 29.3176C4.26386 29.8082 3.96949 30.2253 3.81004 30.5565C3.65054 30.8877 3.62601 31.133 3.51563 31.5378C3.40519 31.9426 3.20897 32.5069 2.79193 33.5741C2.37483 34.6413 1.73693 36.2114 1.3812 37.4994C1.02547 38.7874 0.951868 39.7933 0.816954 40.5171C0.681984 41.2408 0.48576 41.6824 0.37538 42.2344C0.264945 42.7864 0.240408 43.4488 0.289478 44.0131C0.338548 44.5774 0.461166 45.0435 0.534771 45.4483C0.608375 45.8531 0.632909 46.1965 0.669739 46.8345C0.706514 47.4723 0.755587 48.4045 0.915092 49.6067C1.07454 50.8088 1.34437 52.2808 1.57748 53.9368C1.81053 55.5929 2.00681 57.4328 2.20309 59.2728C3.5524 59.4446 4.90176 59.6164 5.94442 59.7022C6.98707 59.7881 7.72312 59.7881 8.55725 59.7635C9.39138 59.739 10.3237 59.6899 11.1578 59.5918C11.9919 59.4936 12.7279 59.3464 13.0959 59.2728C13.4639 59.1992 13.4639 59.1992 13.01 58.451C12.5562 57.7027 11.6484 56.2061 10.8511 54.7464C10.0538 53.2867 9.3668 51.8637 8.81484 50.6371C8.26283 49.4104 7.84574 48.38 7.56361 47.3742C7.28149 46.3683 7.13428 45.3869 7.06067 44.8963C6.98707 44.4056 6.98707 44.4056 7.19564 44.3443C7.40416 44.2829 7.82121 44.1603 8.09109 43.8781C8.36098 43.596 8.48358 43.1544 8.54495 42.9091C8.60626 42.6637 8.60626 42.6147 8.75347 42.2958C8.90068 41.9768 9.19504 41.388 9.34225 41.0936C9.48946 40.7993 9.49409 40.7969 9.49409 40.7969C9.49409 40.7969 9.69192 40.836 9.75323 40.6275C9.81454 40.419 9.97399 40.0939 10.0231 39.824C10.0721 39.5541 9.80841 39.3027 10.0471 39.1725C10.2858 39.0424 10.4749 38.7943 10.4719 38.4233C10.4688 38.0522 10.2735 37.5581 10.2735 37.5581C10.2735 37.5581 10.5988 38.4154 11.2056 38.5251C11.8125 38.6348 12.1353 38.4743 12.386 38.3405C12.6368 38.2068 12.7133 38.1515 12.794 37.9575M7.5759 23.9202C7.34285 21.5855 7.10975 19.2507 6.99325 18.0834C6.8767 16.916 6.8767 16.916 7.07297 16.8547C7.2692 16.7933 7.66175 16.6707 8.3119 16.548C8.96199 16.4253 9.86973 16.3027 10.6916 16.2659C11.5135 16.2291 12.2495 16.2781 13.0346 16.3886C13.8196 16.4989 14.6538 16.6706 15.0709 16.7565C15.4879 16.8424 15.4879 16.8424 15.3298 19.0844C15.1718 21.3264 14.8556 25.8105 14.5395 30.2946M13.1724 36.7075C13.0686 37.1299 12.8865 37.5615 12.7833 37.9813C12.6801 38.4011 12.5729 38.8365 12.2425 39.1585C11.9121 39.4805 11.354 39.7075 10.9338 39.8475C10.5136 39.9874 10.2315 40.0404 9.94929 40.0934M9.04422 41.6929C9.30303 44.2041 9.56185 46.7153 9.67902 48.0077C9.79613 49.3001 9.77159 49.3737 10.3359 49.3982C10.9001 49.4228 12.0532 49.3982 12.6298 49.386C13.2063 49.3737 13.2064 49.3737 13.3229 47.7075C13.4394 46.0413 13.9117 42.3775 14.1447 39.045M15.7933 37.2392C15.7014 37.368 15.469 37.3819 15.4016 37.5628C15.3342 37.7437 15.2912 37.9768 15.2738 38.2477C15.2565 38.5186 15.2646 38.8274 15.2729 39.1362M12.1706 21.9016C11.8013 22.1258 11.432 22.3499 11.2044 22.5234C10.9768 22.6968 10.8909 22.8194 10.897 22.9559C10.9031 23.0923 11.0012 23.2426 11.1014 23.3563C11.2016 23.47 11.3038 23.5472 11.4633 23.6025C11.6228 23.6577 11.8394 23.6908 12.1419 23.6334C12.4443 23.576 12.8324 23.4279 13.2206 23.2798C13.2377 22.9928 13.2549 22.7059 13.2168 22.5107C13.1787 22.3156 13.0851 22.2121 12.9453 22.1229C12.8056 22.0338 12.6195 21.9588 12.4827 21.9243C12.3459 21.8898 12.2582 21.8957 12.1706 21.9016Z" stroke="black" stroke-width="0.447517" stroke-miterlimit="22.9256"/>
  <path fill-rule="evenodd" clip-rule="evenodd" d="M7.81193 18.5002L7.79547 18.5162L7.77967 18.5314L7.7642 18.546L7.74879 18.5601L7.73305 18.5739L7.71664 18.5876L7.69922 18.6013L8.04221 18.5173L8.05617 18.5063L8.0693 18.4954L8.08188 18.4843L8.09423 18.473L8.10658 18.4614L8.11921 18.4492L8.1324 18.4364L8.14647 18.4227L7.82951 18.4831L7.81193 18.5002Z" fill="black"/>
  <path fill-rule="evenodd" clip-rule="evenodd" d="M7.9511 18.3668L7.9343 18.3811L7.91616 18.3976L7.89735 18.4157L7.87866 18.4341L7.86063 18.4522L7.84405 18.4687L7.82959 18.483L8.14655 18.4226L8.15812 18.4112L8.17135 18.3979L8.18577 18.3835L8.20073 18.3687L8.21581 18.3543L8.23028 18.3411L8.24374 18.3296L8.25559 18.3208L7.9659 18.3557L7.9511 18.3668Z" fill="black"/>
  <path fill-rule="evenodd" clip-rule="evenodd" d="M8.51411 18.45L8.38831 18.1862L8.13184 18.1874L8.28906 18.5173L8.51411 18.45Z" fill="black"/>
  <path fill-rule="evenodd" clip-rule="evenodd" d="M8.24544 18.0799L8.22937 18.0959L8.21334 18.1121L8.19726 18.1281L8.18119 18.1439L8.16495 18.1592L8.14853 18.1738L8.13184 18.1874L8.38831 18.1861L8.40166 18.1752L8.4148 18.1635L8.42782 18.1513L8.44066 18.1387L8.45352 18.1259L8.46637 18.1129L8.47923 18.1001L8.49218 18.0876L8.26163 18.0642L8.24544 18.0799Z" fill="black"/>
  <path fill-rule="evenodd" clip-rule="evenodd" d="M8.31141 18.0211L8.17988 17.7614L7.87134 17.6565L8.03573 17.9811L8.31141 18.0211Z" fill="black"/>
  <path fill-rule="evenodd" clip-rule="evenodd" d="M8.37608 17.949L8.36224 17.9662L8.34621 17.9837L8.32886 18.0013L8.31088 18.0185L8.29313 18.035L8.27638 18.0503L8.26147 18.0642L8.49202 18.0876L8.50393 18.0765L8.51734 18.0642L8.53153 18.051L8.54589 18.0372L8.55979 18.0232L8.57258 18.0091L8.58371 17.9954L8.59239 17.9823L8.38699 17.9326L8.37608 17.949Z" fill="black"/>
  <path fill-rule="evenodd" clip-rule="evenodd" d="M7.79581 18.0153L7.44531 18.0654C7.47613 18.0958 7.48358 18.0953 7.5188 18.1138L7.75887 18.237L7.69917 18.6012C7.74729 18.5646 7.78095 18.5299 7.82946 18.4831C7.86463 18.4491 7.92961 18.38 7.96577 18.3558C8.06958 18.3889 8.17868 18.4794 8.28895 18.5173L8.13173 18.1874C8.17657 18.1524 8.21813 18.1054 8.26152 18.0642C8.29819 18.0295 8.36267 17.975 8.38704 17.9326L8.0357 17.9811L7.87131 17.6565C7.83103 17.7496 7.83209 17.9303 7.79581 18.0153Z" fill="#CCCCCC"/>
  <path fill-rule="evenodd" clip-rule="evenodd" d="M14.847 18.4623L14.8635 18.4784L14.8793 18.4936L14.8948 18.5082L14.9102 18.5223L14.9259 18.5361L14.9423 18.5497L14.9598 18.5634L14.5756 18.4078L14.5617 18.3969L14.5486 18.386L14.536 18.3749L14.5237 18.3636L14.5113 18.352L14.4986 18.3398L14.4855 18.3269L14.4714 18.3134L14.8295 18.4453L14.847 18.4623Z" fill="black"/>
  <path fill-rule="evenodd" clip-rule="evenodd" d="M14.7078 18.3292L14.7247 18.3435L14.7428 18.3601L14.7616 18.3781L14.7803 18.3966L14.7983 18.4146L14.8149 18.4312L14.8294 18.4454L14.4713 18.3135L14.4598 18.3021L14.4465 18.2888L14.4321 18.2744L14.4171 18.2596L14.4021 18.2452L14.3876 18.2319L14.3741 18.2205L14.3623 18.2117L14.6931 18.3182L14.7078 18.3292Z" fill="black"/>
  <path fill-rule="evenodd" clip-rule="evenodd" d="M14.1038 18.3407L14.2296 18.0768L14.5271 18.1497L14.3699 18.4795L14.1038 18.3407Z" fill="black"/>
  <path fill-rule="evenodd" clip-rule="evenodd" d="M14.4135 18.0422L14.4296 18.0582L14.4456 18.0744L14.4617 18.0904L14.4778 18.1062L14.494 18.1215L14.5104 18.1361L14.5271 18.1497L14.2295 18.0768L14.2162 18.0659L14.2031 18.0543L14.1901 18.042L14.1772 18.0294L14.1643 18.0165L14.1515 18.0036L14.1387 17.9908L14.1257 17.9783L14.3973 18.0265L14.4135 18.0422Z" fill="black"/>
  <path fill-rule="evenodd" clip-rule="evenodd" d="M14.2828 17.9114L14.2967 17.9285L14.3127 17.9461L14.33 17.9636L14.348 17.9809L14.3658 17.9973L14.3825 18.0127L14.3974 18.0266L14.1258 17.9784L14.1139 17.9672L14.1005 17.9549L14.0863 17.9418L14.0719 17.928L14.058 17.914L14.0452 17.8999L14.0341 17.8862L14.0254 17.873L14.2719 17.895L14.2828 17.9114Z" fill="black"/>
  <path fill-rule="evenodd" clip-rule="evenodd" d="M14.3064 17.9117L14.4379 17.6521L14.7876 17.6188L14.6232 17.9433L14.3064 17.9117Z" fill="black"/>
  <path fill-rule="evenodd" clip-rule="evenodd" d="M14.8632 17.9776L15.2137 18.0277C15.1829 18.0581 15.1754 18.0576 15.1402 18.076L14.9001 18.1993L14.9598 18.5635C14.9117 18.5268 14.8781 18.4922 14.8295 18.4453C14.7944 18.4113 14.7294 18.3423 14.6932 18.3181C14.5894 18.3512 14.4803 18.4417 14.3701 18.4796L14.5273 18.1497C14.4824 18.1147 14.4409 18.0677 14.3975 18.0265C14.3608 17.9918 14.2963 17.9373 14.272 17.8949L14.6233 17.9433L14.7877 17.6188C14.828 17.7119 14.8269 17.8926 14.8632 17.9776Z" fill="#CCCCCC"/>
  <path fill-rule="evenodd" clip-rule="evenodd" d="M13.3565 18.655L13.2795 17.7642L13.8218 17.7037L13.918 18.8172L13.3565 18.655Z" fill="black"/>
  <path fill-rule="evenodd" clip-rule="evenodd" d="M13.4189 18.3869L13.4198 18.4059L13.4243 18.4237L13.4321 18.4402L13.4427 18.4548L13.456 18.4671L13.4714 18.4768L13.4886 18.4834L13.013 18.3879L12.9992 18.3827L12.9869 18.3749L12.9763 18.365L12.9678 18.3534L12.9616 18.3402L12.9579 18.3259L12.9573 18.3108V18.3107L12.9595 18.2958L12.9647 18.282L12.9723 18.2698L12.982 18.2593L12.9935 18.2509L13.0067 18.2448L13.0209 18.2414L13.036 18.2408L13.3261 18.2599L13.88 18.3234L13.5174 18.2995L13.4985 18.3002L13.4807 18.3045L13.4643 18.3121L13.4499 18.3226L13.4377 18.3357L13.4283 18.351L13.4218 18.3681L13.4189 18.3868V18.3869Z" fill="black"/>
  <path fill-rule="evenodd" clip-rule="evenodd" d="M13.2795 17.7642L13.1174 17.7484L13.6191 17.684L13.8218 17.7037L13.2795 17.7642Z" fill="black"/>
  <path fill-rule="evenodd" clip-rule="evenodd" d="M12.728 18.6191L13.0066 17.4275L13.4807 17.2828L13.1324 18.7723L12.728 18.6191Z" fill="black"/>
  <path fill-rule="evenodd" clip-rule="evenodd" d="M12.8523 17.7256L12.8729 17.4169L13.3135 17.2695L13.2877 17.6555L12.8523 17.7256Z" fill="black"/>
  <path fill-rule="evenodd" clip-rule="evenodd" d="M13.125 17.7444L12.8523 17.7257L13.2877 17.6555L13.6286 17.6789L13.125 17.7444Z" fill="black"/>
  <path fill-rule="evenodd" clip-rule="evenodd" d="M12.1453 18.3643L12.3677 18.3719L12.682 18.4634L12.4039 18.4538L12.1453 18.3643Z" fill="black"/>
  <path fill-rule="evenodd" clip-rule="evenodd" d="M12.3031 17.6097L12.1487 17.5919L12.4082 17.4883L12.6012 17.5106L12.3031 17.6097Z" fill="black"/>
  <path fill-rule="evenodd" clip-rule="evenodd" d="M12.3677 18.3719L12.3911 18.0792L12.7113 18.0975L12.682 18.4634L12.3677 18.3719Z" fill="black"/>
  <path fill-rule="evenodd" clip-rule="evenodd" d="M11.9358 18.6002L11.9544 17.3286L12.1653 17.1592L12.1421 18.7487L11.9358 18.6002Z" fill="black"/>
  <path fill-rule="evenodd" clip-rule="evenodd" d="M12.2896 17.8478L12.3031 17.6096L12.6013 17.5105L12.5843 17.8083L12.2896 17.8478Z" fill="black"/>
  <path fill-rule="evenodd" clip-rule="evenodd" d="M10.423 17.3333L10.4184 17.6424L10.2454 17.5515L10.251 17.165L10.423 17.3333Z" fill="black"/>
  <path fill-rule="evenodd" clip-rule="evenodd" d="M10.4184 17.6423L10.1259 17.64L9.87964 17.5485L10.2453 17.5514L10.4184 17.6423Z" fill="black"/>
  <path fill-rule="evenodd" clip-rule="evenodd" d="M10.5846 17.653L10.4104 17.6469L10.2354 17.5571L10.4531 17.5648L10.5846 17.653Z" fill="black"/>
  <path fill-rule="evenodd" clip-rule="evenodd" d="M10.4105 17.6469L10.2845 18.5961L10.0779 18.7435L10.2354 17.5571L10.4105 17.6469Z" fill="black"/>
  <path fill-rule="evenodd" clip-rule="evenodd" d="M10.7051 17.3375L10.9604 18.5773L10.9228 18.7202L10.6038 17.1703L10.7051 17.3375Z" fill="black"/>
  <path fill-rule="evenodd" clip-rule="evenodd" d="M11.3802 17.6236L11.1073 17.6119L11.1064 17.5133L11.4477 17.528L11.3802 17.6236Z" fill="black"/>
  <path fill-rule="evenodd" clip-rule="evenodd" d="M11.6323 18.5811L11.5352 17.6402L11.6413 17.5487L11.7628 18.7248L11.6323 18.5811Z" fill="black"/>
  <path fill-rule="evenodd" clip-rule="evenodd" d="M11.2557 18.3038L11.261 18.3226L11.2309 18.2593L11.2268 18.2443L11.2256 18.2283L11.2543 18.2838L11.2557 18.3038Z" fill="black"/>
  <path fill-rule="evenodd" clip-rule="evenodd" d="M11.2625 18.164L11.2762 18.1572L11.2912 18.1532L11.3071 18.1522L11.5888 18.1636L11.6046 18.1659L11.7281 18.2057L11.7083 18.2029L11.3563 18.1887L11.3363 18.1899L11.3176 18.195L11.3005 18.2035L11.2854 18.215L11.2729 18.2292L11.2632 18.2456L11.2569 18.264L11.2543 18.2839L11.2256 18.2283L11.2277 18.2124L11.2328 18.1977L11.2405 18.1845L11.2505 18.1732L11.2625 18.164Z" fill="black"/>
  <path fill-rule="evenodd" clip-rule="evenodd" d="M11.5352 17.6401L11.3728 17.6281L11.4383 17.5336L11.6413 17.5485L11.5352 17.6401Z" fill="black"/>
  <path fill-rule="evenodd" clip-rule="evenodd" d="M11.0034 18.5614L11.2549 17.2916L11.291 17.113L10.9766 18.7003L11.0034 18.5614Z" fill="black"/>
  <path fill-rule="evenodd" clip-rule="evenodd" d="M9.83733 17.3908L9.83889 17.713L9.52094 17.6397L9.51904 17.2369L9.83733 17.3908Z" fill="black"/>
  <path fill-rule="evenodd" clip-rule="evenodd" d="M9.83892 17.7129L9.44637 17.7481L9.03027 17.6837L9.52098 17.6396L9.83892 17.7129Z" fill="black"/>
  <path fill-rule="evenodd" clip-rule="evenodd" d="M9.44637 17.7482L9.46372 18.3713L9.05197 18.4625L9.03027 17.6837L9.44637 17.7482Z" fill="black"/>
  <path fill-rule="evenodd" clip-rule="evenodd" d="M9.46375 18.3712L9.86366 18.3287L9.55193 18.4094L9.052 18.4625L9.46375 18.3712Z" fill="black"/>
  <path fill-rule="evenodd" clip-rule="evenodd" d="M9.86373 18.3287L9.88731 18.6143L9.58144 18.7663L9.552 18.4094L9.86373 18.3287Z" fill="black"/>
  <path d="M9.0303 17.6836L9.052 18.4625L9.55193 18.4093L9.58137 18.7662L8.73783 18.8548L8.7124 17.3162L9.51911 17.2368L9.52101 17.6396L9.0303 17.6836Z" fill="#B3B3B3"/>
  <path d="M10.9766 18.7002L11.291 17.1129L11.7914 17.1381L12.0363 18.7392L11.7629 18.7245L11.6415 17.5484L11.4384 17.5335L11.265 18.7086L10.9766 18.7002Z" fill="#B3B3B3"/>
  <path fill-rule="evenodd" clip-rule="evenodd" d="M11.3562 18.1886L11.7082 18.2027C11.7627 18.205 11.8059 18.2513 11.8043 18.3059C11.8027 18.3605 11.7569 18.4033 11.7023 18.401L11.3503 18.3868C11.2958 18.3846 11.2526 18.3383 11.2542 18.2837C11.2558 18.2291 11.3017 18.1863 11.3562 18.1886Z" fill="#B3B3B3"/>
  <path fill-rule="evenodd" clip-rule="evenodd" d="M11.4621 17.1216L11.4477 17.5279L11.1064 17.5132L11.1234 17.1038L11.4621 17.1216Z" fill="#B3B3B3"/>
  <path d="M9.7688 18.7356L10.0674 17.1624L10.6037 17.1702L10.9227 18.7201L10.602 18.7058L10.4531 17.5648L10.2353 17.5571L10.0778 18.7435L9.7688 18.7356Z" fill="#B3B3B3"/>
  <path fill-rule="evenodd" clip-rule="evenodd" d="M10.251 17.1651L10.2453 17.5515L9.87964 17.5486L9.88798 17.1591L10.251 17.1651Z" fill="#B3B3B3"/>
  <path fill-rule="evenodd" clip-rule="evenodd" d="M13.0097 18.789L12.1421 18.7486L12.1653 17.1591L12.8478 17.1869L12.8459 17.8122L13.0137 17.8327L13.0097 18.789ZM12.4166 18.082L12.4039 18.4537L12.682 18.4633L12.7113 18.0974L12.4166 18.082ZM12.6013 17.5105L12.4083 17.4882L12.4035 17.796L12.5843 17.8083L12.6013 17.5105Z" fill="#B3B3B3"/>
  <path d="M13.1326 18.7723L13.4808 17.2828L13.9806 17.3205L14.1911 18.8385L13.9181 18.8171L13.8219 17.7036L13.6193 17.6839L13.4207 18.7883L13.1326 18.7723Z" fill="#B3B3B3"/>
  <path fill-rule="evenodd" clip-rule="evenodd" d="M13.5175 18.2995L13.8802 18.3234C13.9316 18.3268 13.9713 18.3716 13.9685 18.423V18.4231C13.9657 18.4746 13.9215 18.5138 13.8701 18.5104L13.5074 18.4865C13.456 18.4831 13.4163 18.4384 13.4191 18.3869V18.3868C13.4219 18.3354 13.4661 18.2961 13.5175 18.2995Z" fill="#B3B3B3"/>
  <path fill-rule="evenodd" clip-rule="evenodd" d="M13.6517 17.2957L13.6287 17.6788L13.2878 17.6555L13.3136 17.2695L13.6517 17.2957Z" fill="#B3B3B3"/>
  <path fill-rule="evenodd" clip-rule="evenodd" d="M45.1121 34.111C45.1121 35.9301 44.6641 37.5743 43.768 39.0436C42.872 40.4895 41.6126 41.6556 39.99 42.5418C38.3915 43.4047 36.5389 43.9178 34.4319 44.0811V46.32H31.7073V44.116C29.5761 43.9528 27.6991 43.428 26.0765 42.5418C24.4538 41.6556 23.1824 40.4778 22.2621 39.0086C21.366 37.5393 20.918 35.8951 20.918 34.076C20.918 32.1869 21.366 30.4961 22.2621 29.0035C23.1582 27.5108 24.4175 26.3098 26.0402 25.4003C27.687 24.4907 29.5761 23.9543 31.7073 23.791V21.3073H34.4319V23.826C36.5389 23.9892 38.3915 24.5374 39.99 25.4703C41.6126 26.3798 42.872 27.5808 43.768 29.0734C44.6641 30.566 45.1121 32.2452 45.1121 34.111ZM23.6789 34.111C23.6789 35.5336 24.0179 36.8163 24.6961 37.959C25.3741 39.1018 26.3186 40.0347 27.5296 40.7577C28.7406 41.4574 30.1331 41.8889 31.7073 42.052V25.89C30.1331 26.0533 28.7406 26.5081 27.5296 27.2543C26.3186 27.9773 25.3741 28.9335 24.6961 30.1229C24.0179 31.3123 23.6789 32.6416 23.6789 34.111ZM34.4319 42.052C35.9819 41.8889 37.3502 41.4457 38.5369 40.7227C39.7478 39.9997 40.6802 39.0784 41.3341 37.959C42.0122 36.8163 42.3513 35.5336 42.3513 34.111C42.3513 32.665 42.0122 31.3473 41.3341 30.158C40.6802 28.9685 39.7478 28.0123 38.5369 27.2893C37.3502 26.5431 35.9819 26.0766 34.4319 25.89V42.052ZM65.2147 29.3533V45.7252H62.7444V43.3115C62.042 44.2443 61.1823 44.979 60.1651 45.5153C59.1479 46.0285 58.0339 46.285 56.823 46.285C55.2004 46.285 53.7472 45.9118 52.4636 45.1655C51.1801 44.4193 50.175 43.3814 49.4485 42.052C48.7219 40.7227 48.3586 39.2068 48.3586 37.5043C48.3586 35.8251 48.7099 34.3325 49.4121 33.0264C50.1387 31.6971 51.1317 30.6593 52.391 29.913C53.6746 29.1667 55.1277 28.7936 56.7503 28.7936C57.9855 28.7936 59.1116 29.0617 60.1289 29.5982C61.1702 30.1113 62.042 30.8459 62.7444 31.8021V29.3533H65.2147ZM56.7503 44.116C57.9128 44.116 58.9421 43.8362 59.8381 43.2764C60.7585 42.7168 61.4729 41.9355 61.9815 40.9325C62.4901 39.9298 62.7444 38.7987 62.7444 37.5393C62.7444 36.2799 62.4901 35.1488 61.9815 34.1459C61.4729 33.1431 60.7585 32.3618 59.8381 31.8021C58.9421 31.2424 57.9128 30.9625 56.7503 30.9625C55.612 30.9625 54.5949 31.2424 53.6989 31.8021C52.8028 32.3618 52.1004 33.1431 51.5918 34.1459C51.0832 35.1254 50.8289 36.2448 50.8289 37.5043C50.8289 38.787 51.0832 39.9298 51.5918 40.9325C52.1004 41.9355 52.8028 42.7168 53.6989 43.2764C54.5949 43.8362 55.612 44.116 56.7503 44.116ZM83.7614 45.7252H80.9644L74.9703 38.3089H72.2458V45.7252H69.7756V29.3533H72.2458V36.1399H75.0067L80.3105 29.3533H83.0713L76.8958 37.1195L83.7614 45.7252ZM93.93 28.7936C95.455 28.7936 96.8361 29.155 98.0712 29.878C99.3063 30.601 100.275 31.5922 100.977 32.8516C101.68 34.0876 102.031 35.4753 102.031 37.0145C102.031 37.4576 102.018 37.7958 101.994 38.029H88.0076C88.1046 39.7082 88.6742 41.1425 89.7154 42.3319C90.7565 43.5213 92.1733 44.116 93.9657 44.116C95.4193 44.116 96.6177 43.8595 97.5619 43.3465C98.5305 42.81 99.3063 42.0754 99.8871 41.1425L101.849 42.4019C101.05 43.6146 99.9963 44.5708 98.6888 45.2704C97.3802 45.9468 95.8307 46.285 94.0382 46.285C92.3918 46.285 90.926 45.9118 89.6429 45.1655C88.3588 44.4193 87.3544 43.3814 86.6276 42.052C85.9008 40.7227 85.5374 39.2184 85.5374 37.5393C85.5374 35.86 85.8886 34.3558 86.5909 33.0264C87.3176 31.6971 88.3108 30.6593 89.5704 29.913C90.8535 29.1667 92.3071 28.7936 93.93 28.7936ZM99.5605 36.07C99.3186 34.3675 98.7245 33.0965 97.7803 32.2569C96.8361 31.3939 95.552 30.9625 93.93 30.9625C92.355 30.9625 91.0597 31.4523 90.042 32.4318C89.0498 33.388 88.42 34.6008 88.1536 36.07H99.5605ZM104.297 43.5563H105.423C106.44 43.5563 107.24 42.7051 107.82 41.0026C108.402 39.2767 108.693 36.6647 108.693 33.1664V29.3533H119.882V45.7252H117.411V31.5223H111.017V33.8311C111.017 37.4693 110.594 40.3613 109.747 42.5069C108.923 44.6524 107.446 45.7252 105.314 45.7252H104.297V43.5563Z" fill="#F3F3F3"/>
 </g>
 <defs>
  <clipPath id="clip0_1337_11802">
   <rect width="120" height="60" fill="white"/>
  </clipPath>
 </defs>
</svg>
