<?xml version="1.0" encoding="UTF-8" standalone="no"?>
<!-- Creator: CorelDRAW 2019 (64-Bit) -->

<svg
   xmlns:dc="http://purl.org/dc/elements/1.1/"
   xmlns:cc="http://creativecommons.org/ns#"
   xmlns:rdf="http://www.w3.org/1999/02/22-rdf-syntax-ns#"
   xmlns:svg="http://www.w3.org/2000/svg"
   xmlns="http://www.w3.org/2000/svg"
   xmlns:sodipodi="http://sodipodi.sourceforge.net/DTD/sodipodi-0.dtd"
   xmlns:inkscape="http://www.inkscape.org/namespaces/inkscape"
   xml:space="preserve"
   width="120"
   height="60"
   version="1.1"
   style="clip-rule:evenodd;fill-rule:evenodd;image-rendering:optimizeQuality;shape-rendering:geometricPrecision;text-rendering:geometricPrecision"
   viewBox="0 0 3175 1587.5"
   id="svg4214"
   sodipodi:docname="fakel-logo.svg"
   inkscape:version="0.92.5 (2060ec1f9f, 2020-04-08)"><metadata
   id="metadata4218"><rdf:RDF><cc:Work
       rdf:about=""><dc:format>image/svg+xml</dc:format><dc:type
         rdf:resource="http://purl.org/dc/dcmitype/StillImage" /><dc:title></dc:title></cc:Work></rdf:RDF></metadata><sodipodi:namedview
   pagecolor="#ffffff"
   bordercolor="#666666"
   borderopacity="1"
   objecttolerance="10"
   gridtolerance="10"
   guidetolerance="10"
   inkscape:pageopacity="0"
   inkscape:pageshadow="2"
   inkscape:window-width="1920"
   inkscape:window-height="1015"
   id="namedview4216"
   showgrid="false"
   inkscape:zoom="9.5144352"
   inkscape:cx="78.448454"
   inkscape:cy="34.613476"
   inkscape:window-x="0"
   inkscape:window-y="0"
   inkscape:window-maximized="1"
   inkscape:current-layer="svg4214"
   inkscape:lockguides="false"
   units="px" />
 <defs
   id="defs4047">
  <style
   type="text/css"
   id="style4045">
   <![CDATA[
    .str0 {stroke:black;stroke-width:70.56;stroke-miterlimit:22.9256}
    .str1 {stroke:black;stroke-width:20;stroke-miterlimit:22.9256}
    .fil6 {fill:none}
    .fil7 {fill:black}
    .fil5 {fill:#333333}
    .fil4 {fill:gray}
    .fil3 {fill:#999999}
    .fil10 {fill:#B3B3B3}
    .fil8 {fill:#CCCCCC}
    .fil1 {fill:#E95718}
    .fil0 {fill:#F29022}
    .fil2 {fill:white}
    .fil9 {fill:#B3B3B3;fill-rule:nonzero}
   ]]>
  </style>
 <linearGradient
   id="paint0_linear_981_1993"
   x1="68.5"
   y1="0"
   x2="68.5"
   y2="57"
   gradientUnits="userSpaceOnUse"
   gradientTransform="matrix(26.458333,0,0,26.458333,2332.0897,5021.2947)"><stop
     stop-color="#F47F09"
     stop-opacity="0.99609"
     id="stop3792" /><stop
     offset="1"
     stop-color="#B5AFA9"
     stop-opacity="0.51"
     id="stop3794" /></linearGradient></defs>
 <g
   id="Слой_x0020_1"
   transform="matrix(0.14720031,0,0,0.14720031,-2288.1758,-594.36637)">
  <metadata
   id="CorelCorpID_0Corel-Layer" />
  <g
   id="_1111156288">
   <g
   id="g4088">
    <g
   id="g4054">
     <path
   class="fil0 str0"
   d="m 17659.35,6723.6 c 66.66,267.18 56.91,491.75 7.2,728.4 22.22,-28.21 33.16,-41.44 48.33,-72.44 6.87,-14.03 10.43,-24.17 17.24,-38.96 l 50.18,-124.73 c 42.32,-121.09 100.58,-320.36 125.44,-442.86 14.46,-71.26 25.07,-107.2 34.89,-182.78 43.88,-337.56 45.03,-673.43 -146.13,-965.42 -44.36,-67.75 -127.41,-160.7 -181.26,-202.71 l -101.54,-75.08 c -76.53,-60.32 -255.27,-132.03 -349.19,-164.79 -54.37,-18.96 -195.2,-65.28 -247.58,-76.92 -152.48,-33.87 -289.74,-75.19 -429.94,-145.17 -125.91,-62.87 -167.61,-118.53 -235.83,-238.89 39.53,187.3 136.91,333.72 229.76,403.5 31.29,23.51 44.47,30.94 81.36,54.95 36.26,23.6 237.28,96.68 278.23,111.99 129.71,48.5 207.53,93.13 316.4,140.78 40.31,17.62 92.95,50.38 130.03,72.08 61.04,35.72 213.45,154.15 229.75,233.87 -26.39,-30.21 -41.78,-43.25 -131.28,-111.57 -103.89,-58.06 -235.23,-101.89 -347.28,-140.97 -165.64,-57.8 -339.54,-106.93 -507.39,-159.17 -252.71,-72.5 -519.81,-211.45 -568.06,-515.65 -30.13,-190.01 35.1,-338.06 94.59,-481.68 l 54.88,-101.41 c 9.28,-15.98 11.99,-19.05 21.86,-37.8 -67.84,50.92 -240.42,261.62 -279.14,343.81 -78.62,166.9 -103.08,266.5 -102.64,448.05 0.27,106.22 12.28,164.83 58.64,263.24 41.7,88.53 73.18,138.5 130.08,203.73 73.88,84.69 163.54,142.24 254.87,194.71 l 187.94,100.38 c 32.36,15.45 64.29,29.07 95.8,43.51 l 194.97,87.34 c 63.43,24.92 128.36,55.06 194.25,82.32 130.27,53.89 174.94,72.78 290.98,130.83 l 29.81,15.84 c 0.87,0.47 2.14,1.11 3.01,1.58 l 140.62,101.71 c 27.24,24.01 53.63,46.05 81.49,75.97 99.42,106.75 199.58,259.75 244.66,440.41 z"
   id="path4050"
   inkscape:connector-curvature="0"
   style="fill:#f29022;stroke:#000000;stroke-width:70.55999756;stroke-miterlimit:22.92560005" />
     <path
   class="fil1 str0"
   d="m 17732.48,7452.19 c 26.99,-81.79 25.96,-88.23 31.73,-163.9 13.02,-170.5 15.66,-355.96 -4.35,-526.51 -7.63,-65.12 -12.37,-115.82 -25.9,-180.95 -12.35,-59.52 -32.1,-127.92 -54.38,-189.04 -103.09,-282.88 -274.82,-406.03 -506.88,-470.21 -69.7,-19.27 -220.85,-32.5 -299.4,-29.62 -47.93,1.75 -105.52,3.25 -153.23,3.07 -127.72,-0.48 -338.37,-5.86 -429.45,-133.58 43.58,120.02 151.21,206.78 228.86,236.87 87.14,33.77 177.39,37.12 268.28,45.62 l 268.71,43.31 c 79.79,17.9 208.86,51.32 252.86,134.2 -53.49,-35.53 -84.39,-48.85 -147.41,-54.42 l -680.98,-39.08 c -247.54,-26.69 -424.66,-176.74 -412.81,-505.51 1.73,-47.86 7.26,-76.72 12.54,-119.06 2.88,-23.06 7.92,-36.59 12.66,-58.26 l 14.88,-57.64 c -68.01,88.74 -131.46,289.83 -137.96,418.06 -0.87,16.97 -1.57,32.94 -1.58,48.26 -0.08,96.41 28.76,245.22 82.03,324.43 45.41,67.52 86.4,118.24 142.72,157.81 75.55,53.1 214.11,108.28 307.06,121.75 215.75,34.88 500.5,61.16 704.01,123.94 252.03,77.73 450.06,359.28 501.1,659.38 6.48,38.09 11.73,69.84 17.21,105.96 5.47,36.04 3.26,72.7 9.68,105.12 z"
   id="path4052"
   inkscape:connector-curvature="0"
   style="fill:#e95718;stroke:#000000;stroke-width:70.55999756;stroke-miterlimit:22.92560005" />
    </g>
    <path
   class="fil2"
   d="m 18300.08,7468.11 c -26.72,379.05 -78.59,1114.63 -131.94,1871.38 44.63,31.22 89.26,62.44 118.56,111.49 29.3,49.05 43.26,115.92 57.23,182.8 97.01,83.78 123.47,123.47 125.68,176.39 2.2,52.91 -19.85,119.06 -24.26,202.85 -4.41,83.78 8.82,185.2 13.23,260.17 4.41,74.97 0,123.47 -17.64,194.03 -17.64,70.55 -48.5,163.16 -57.32,266.79 -8.82,103.62 4.4,218.28 -14.9,277.41 -13.59,41.6 -43.27,55.73 -78.88,60.88 -15,2.17 -31.06,2.75 -47.4,3.12 -55.13,1.25 -106.54,1.18 -155.47,-18.25 -41.92,598.65 -126.7,1256.48 -147.63,1555.76 -20.94,299.49 -20.95,299.49 -124.58,301.7 -103.63,2.2 -310.89,6.61 -412.31,2.2 -101.43,-4.41 -97.02,-17.64 -118.07,-249.94 -21.06,-232.3 -67.58,-683.67 -114.1,-1135.04 -19.63,39.8 -39.18,80.01 -52.26,108.36 -26.46,57.32 -26.46,66.14 -37.48,110.24 -11.03,44.09 -33.07,123.47 -81.58,174.18 -48.51,50.71 -123.47,72.76 -160.95,83.79 -37.49,11.02 -37.49,11.02 -24.26,99.22 13.23,88.19 39.69,264.58 90.4,445.38 50.71,180.8 125.68,366 224.9,586.49 99.21,220.48 222.69,476.25 366.01,738.63 143.31,262.37 306.47,531.37 388.05,665.87 81.58,134.49 81.58,134.49 15.44,147.72 -66.15,13.23 -198.44,39.69 -348.37,57.33 -149.93,17.64 -317.5,26.46 -467.43,30.87 -149.93,4.41 -282.23,4.41 -469.64,-11.02 -187.41,-15.43 -429.95,-46.31 -672.48,-77.18 -35.28,-330.73 -70.56,-661.45 -112.45,-959.11 -41.9,-297.66 -90.4,-562.24 -119.06,-778.32 -28.67,-216.08 -37.49,-383.64 -44.1,-498.29 -6.62,-114.66 -11.03,-176.39 -24.26,-249.15 -13.23,-72.77 -35.27,-156.55 -44.09,-257.97 -8.82,-101.43 -4.41,-220.5 15.44,-319.71 19.84,-99.22 55.11,-178.6 79.37,-308.68 24.25,-130.09 37.48,-310.89 101.42,-542.4 63.94,-231.51 178.6,-513.73 253.57,-705.55 74.96,-191.83 110.23,-293.25 130.08,-366.01 19.84,-72.77 24.25,-116.86 52.92,-176.39 28.66,-59.53 81.57,-134.5 112.44,-222.69 30.87,-88.19 39.69,-189.62 59.54,-288.84 19.84,-99.22 50.7,-196.23 74.96,-264.58 24.25,-68.36 41.89,-108.04 55.12,-136.7 13.23,-28.67 22.05,-46.31 85.99,-92.61 63.94,-46.3 183.01,-121.27 288.84,-187.41 -41.89,-419.66 -83.79,-839.31 -104.73,-1049.14 -20.95,-209.83 -20.95,-209.83 14.33,-220.85 35.27,-11.03 105.83,-33.07 222.69,-55.12 116.85,-22.05 280.01,-44.1 427.74,-50.71 147.72,-6.62 280.02,2.2 421.13,22.05 141.11,19.84 291.04,50.7 366.01,66.14 74.96,15.43 74.96,15.43 46.55,418.42 z"
   id="path4056"
   inkscape:connector-curvature="0"
   style="fill:#ffffff" />
    <path
   class="fil3 str1"
   d="m 16806.03,12048.81 c 15.98,-20.14 93.11,-42.35 149.47,-89.25 49.49,-41.18 79.03,-106.98 91.29,-131.6 26.24,-52.67 48.74,-120.22 77.63,-190 28.88,-69.78 64.15,-141.8 91.18,-187.63 27.03,-45.84 45.82,-65.47 66.22,-103.5 20.39,-38.04 42.39,-94.48 52.84,-137.79 10.44,-43.31 9.31,-73.51 21.27,-108.96 11.95,-35.46 36.97,-76.19 50.02,-111.33 13.05,-35.15 14.11,-64.73 9.66,-97.15 -4.45,-32.42 -14.41,-67.69 -35.52,-105.42 -21.12,-37.74 -53.39,-77.93 -142.28,-95.82 -88.89,-17.9 -234.41,-13.49 -408.59,132.03 -174.19,145.52 -377.04,432.16 -489.49,784.94 -112.45,352.77 -134.49,771.7 -87.08,1144.32 47.4,372.62 164.25,698.94 361.4,1026.97 197.14,328.03 474.56,657.77 613.28,822.64 138.71,164.87 138.71,164.87 138.71,164.87 81.31,-8.22 162.63,-16.44 242.63,-27.11 80,-10.67 158.7,-23.8 214.08,-34.5 55.38,-10.71 87.45,-19 101.94,-31.18 14.49,-12.19 11.4,-28.26 -101.88,-237.77 -113.29,-209.51 -336.77,-612.46 -486.97,-899.86 -150.2,-287.4 -227.12,-459.25 -286.85,-603.77 -59.74,-144.53 -102.29,-261.73 -138.63,-394.55 -36.34,-132.83 -66.48,-281.29 -82.83,-365.32 -16.35,-84.04 -18.93,-103.65 -21.5,-123.26 z"
   id="path4058"
   inkscape:connector-curvature="0"
   style="fill:#999999;stroke:#000000;stroke-width:20;stroke-miterlimit:22.92560005" />
    <path
   class="fil4"
   d="m 17422.92,14658.11 c -11.35,-99.78 -149.96,-290.5 -298.64,-496.11 -148.68,-205.61 -307.43,-426.09 -415.47,-635.55 -108.04,-209.47 -165.36,-407.9 -216.07,-601.93 -50.72,-194.03 -94.81,-383.65 -103.63,-524.76 -8.82,-141.11 17.64,-233.72 50.72,-284.43 33.07,-50.71 72.75,-59.53 74.96,-72.76 2.2,-13.23 -33.07,-30.87 -61.73,-61.74 -28.67,-30.87 -50.72,-74.96 -52.92,-119.06 -2.21,-44.1 15.43,-88.19 72.76,-112.44 57.32,-24.26 154.34,-28.67 202.85,-30.87 48.5,-2.21 48.5,-2.21 -2.21,-26.46 -50.71,-24.26 -152.14,-72.76 -174.18,-149.93 -22.05,-77.17 35.27,-183.01 108.03,-317.5 72.76,-134.5 160.96,-297.66 257.97,-392.47 97.01,-94.81 202.85,-121.26 291.97,-117.11 89.11,4.14 164.48,26.53 225.63,85.25 61.15,58.72 112.54,138.77 175.82,162.21 63.28,23.44 163.53,-13.81 212.17,-33.17 48.64,-19.36 53.16,-55.31 74.23,-103.4 21.07,-48.09 36.66,-116.64 44.45,-150.9 7.79,-34.27 7.79,-34.27 -145.84,-62.27 -153.64,-28 -460.92,-84 -649.83,-123.02 -188.91,-39.03 -259.47,-61.08 -323.41,-41.23 -63.94,19.84 -121.26,81.57 -202.84,202.84 -81.58,121.27 -187.42,302.07 -295.45,533.58 -108.04,231.51 -218.29,513.73 -284.43,692.33 -66.15,178.59 -88.2,253.55 -138.69,291.23 -50.5,37.67 -129.44,38.04 -149.28,2.77 -19.85,-35.28 19.41,-106.22 52.27,-143.89 32.85,-37.67 59.3,-42.08 31.82,-76.34 -27.48,-34.26 -108.9,-98.37 -149.81,-118.25 -40.91,-19.89 -41.3,4.46 16.53,488.33 57.83,483.87 173.9,1427.27 231.93,1898.97 58.03,471.7 58.03,471.7 114.01,478.68 55.97,6.98 167.93,20.94 319.12,35.92 151.18,14.97 341.61,30.95 495.93,37.94 154.32,6.99 272.54,4.97 389.61,-0.44 117.07,-5.42 232.99,-14.25 221.65,-114.02 z"
   id="path4060"
   inkscape:connector-curvature="0"
   style="fill:#808080" />
    <path
   class="fil3"
   d="m 16425.48,9258.4 c -0.22,-91.69 83.13,-232.44 109.87,-336.18 26.73,-103.74 -3.14,-170.47 27.73,-203.54 30.86,-33.08 122.48,-32.49 225.61,-56.45 103.13,-23.97 217.78,-72.47 312.59,-118.77 94.81,-46.31 169.77,-90.4 244.5,-136.83 74.72,-46.44 149.21,-95.21 188.62,-104.03 39.41,-8.82 43.75,22.31 72.38,34.29 28.63,11.98 81.54,4.82 145.97,-13.87 64.42,-18.7 140.34,-48.91 178.64,-65.53 38.29,-16.63 38.94,-19.66 25.33,3.01 -13.62,22.67 -41.5,71.03 -87.75,120.3 -46.26,49.26 -110.87,99.43 -179.56,141.21 -68.69,41.77 -141.44,75.17 -224.12,124.94 -82.68,49.77 -175.29,115.91 -255.87,165.55 -80.59,49.63 -149.15,82.74 -167.89,170.2 -18.75,87.46 12.34,229.27 25.31,289.14 12.97,59.87 14.57,88.08 -43.62,101.76 -58.19,13.68 -180.81,34.92 -260.18,59.54 -79.37,24.62 -122.26,2.36 -187.91,-19.03 -65.65,-21.39 -149.43,-64.02 -149.65,-155.71 z"
   id="path4062"
   inkscape:connector-curvature="0"
   style="fill:#999999" />
    <path
   class="fil3"
   d="m 16894.93,9681.18 c 40.01,-17.27 147.96,-31.22 297.85,-60.25 149.89,-29.03 341.72,-73.12 446.45,-106.19 104.73,-33.08 122.37,-55.13 160.96,-39.69 38.58,15.43 98.11,68.34 178.59,125.67 80.47,57.33 181.9,119.06 254.66,162.06 72.76,42.99 116.86,67.25 133.4,136.7 16.53,69.45 5.51,184.11 -0.99,255.85 -6.51,71.74 -8.49,100.57 -54.42,65.92 -45.94,-34.66 -135.82,-132.8 -215.13,-216.46 -79.32,-83.67 -148.06,-152.85 -199.83,-191.69 -51.78,-38.85 -86.58,-47.35 -136.69,-51.47 -50.12,-4.13 -115.54,-3.89 -228.33,-1.28 -112.8,2.6 -272.97,7.55 -384.31,4.49 -111.34,-3.06 -173.86,-14.15 -219.08,-29.98 -45.22,-15.83 -73.15,-36.41 -33.13,-53.68 z"
   id="path4064"
   inkscape:connector-curvature="0"
   style="fill:#999999" />
    <path
   class="fil3"
   d="m 17052.93,10110.97 c 3.22,-11.44 37.33,-8.39 117.77,0.86 80.44,9.24 207.23,24.68 311.96,32.4 104.73,7.71 187.41,7.71 246.39,-17.64 58.98,-25.36 94.26,-76.08 119.62,-85.45 25.35,-9.37 40.79,22.61 57.88,61.75 17.08,39.13 35.82,85.43 79.37,131.18 43.54,45.75 111.9,90.95 171.98,120.17 60.08,29.21 111.9,42.44 148.83,61.74 36.93,19.29 58.98,44.64 60.09,91.5 1.1,46.85 -18.75,115.2 -45.2,164.81 -26.46,49.61 -59.54,80.48 -82.14,109.15 -22.6,28.66 -34.72,55.11 -32.48,103.74 2.23,48.63 18.84,119.44 13.41,154.55 -5.43,35.1 -32.88,34.51 -66.3,27.98 -33.42,-6.53 -78.01,-6.31 -112.95,-31.99 -34.94,-25.68 -69.89,-71.71 -92.31,-119.87 -22.42,-48.16 -27.13,-111.17 -32.7,-174.1 -5.57,-62.93 -2.34,-131.37 -8.85,-183.6 -6.52,-52.23 -22.76,-88.28 -43.45,-116.84 -20.69,-28.57 -45.82,-49.66 -79.12,-68.55 -33.3,-18.89 -74.78,-35.59 -129.81,-50.41 -55.04,-14.82 -123.64,-27.76 -187.98,-40.84 -64.35,-13.09 -124.44,-26.3 -184.05,-44.19 -59.62,-17.9 -118.76,-40.46 -162.15,-64.71 -43.4,-24.26 -71.04,-50.2 -67.81,-61.64 z"
   id="path4066"
   inkscape:connector-curvature="0"
   style="fill:#999999" />
    <path
   class="fil3"
   d="m 16082.57,10331.63 c 60.63,-85.99 177.49,-289.94 248.05,-400.73 70.55,-110.8 94.81,-128.44 128.99,-147.73 34.17,-19.3 78.26,-40.24 73.85,-63.94 -4.41,-23.71 -57.32,-50.16 -93.15,-67.25 -35.83,-17.09 -54.57,-24.81 -72.76,-19.85 -18.19,4.96 -35.83,22.6 -64.49,65.05 -28.67,42.44 -68.35,109.69 -105.28,190.72 -36.94,81.03 -71.11,175.84 -101.43,255.77 -30.32,79.92 -56.78,144.97 -67.8,193.48 -11.03,48.5 -6.62,80.47 54.02,-5.52 z"
   id="path4068"
   inkscape:connector-curvature="0"
   style="fill:#999999" />
    <path
   class="fil3"
   d="m 16263.87,10387.07 c -3.31,-51.82 47.41,-175.3 89.3,-259.63 41.89,-84.34 74.97,-129.54 104.19,-156.55 29.21,-27.01 54.56,-35.82 89.29,-39.68 34.73,-3.86 78.82,-2.76 115.78,1.65 36.96,4.41 66.79,12.13 59.07,28.67 -7.72,16.53 -52.97,41.89 -95.44,83.23 -42.48,41.34 -82.17,98.66 -122.41,160.4 -40.24,61.74 -81.03,127.88 -130.09,170.88 -49.06,42.99 -106.38,62.84 -109.69,11.03 z"
   id="path4070"
   inkscape:connector-curvature="0"
   style="fill:#999999" />
    <path
   class="fil3"
   d="m 16805.01,12088.73 c -7.55,11.17 -16.93,81.9 -18.31,166.32 -1.39,84.42 5.23,182.53 22.32,271.28 17.08,88.74 44.64,168.12 75.51,256.87 30.87,88.74 65.04,186.85 135.67,309.94 70.63,123.08 177.72,271.14 231.26,345.17 53.54,74.02 53.54,74.02 11.1,-18.14 -42.45,-92.16 -127.34,-276.48 -186.42,-411.7 -59.08,-135.22 -92.35,-221.34 -121.61,-308.23 -29.27,-86.9 -54.54,-174.58 -75.63,-262.36 -21.09,-87.78 -38.01,-175.67 -49.32,-243.8 -11.32,-68.14 -17.03,-116.52 -24.57,-105.35 z"
   id="path4072"
   inkscape:connector-curvature="0"
   style="fill:#999999" />
    <path
   class="fil3"
   d="m 17643.97,8237.61 c 42.43,-34.52 159.37,-94.08 217.84,-123.86 58.46,-29.78 58.46,-29.78 59.12,-18.27 0.66,11.5 1.98,34.52 2.1,57.56 0.11,23.04 -0.99,46.1 -17.49,63.55 -16.51,17.45 -48.44,29.28 -90.99,40.76 -42.55,11.47 -95.72,22.58 -138.34,23.41 -42.62,0.82 -74.68,-8.64 -32.24,-43.15 z"
   id="path4074"
   inkscape:connector-curvature="0"
   style="fill:#999999" />
    <path
   class="fil4"
   d="m 17428.42,10860.01 c -11.63,9.19 -6.58,46.67 -4.44,70.52 2.13,23.85 1.35,34.07 -6.05,52.64 -7.4,18.57 -21.42,45.48 -36.77,66.98 -15.35,21.49 -32.02,37.58 -38.31,55.19 -6.29,17.6 -2.2,36.74 0.49,59.67 2.69,22.93 3.96,49.66 2,63.52 -1.97,13.85 -7.17,14.83 26.41,5.6 33.57,-9.23 105.92,-28.66 170.53,-53.12 64.6,-24.46 121.46,-53.93 161.99,-82.95 40.52,-29.03 64.72,-57.59 84.88,-95.85 20.15,-38.27 36.26,-86.23 45.84,-113.83 9.58,-27.6 12.63,-34.83 0.87,-24.62 -11.76,10.21 -38.34,37.86 -73.07,58.25 -34.74,20.39 -77.63,33.5 -123.34,26.79 -45.72,-6.72 -94.25,-33.26 -132.67,-56.08 -38.42,-22.82 -66.73,-41.9 -78.36,-32.71 z"
   id="path4076"
   inkscape:connector-curvature="0"
   style="fill:#808080" />
    <polygon
   class="fil4"
   points="17164.11,11551 17322.86,12916.92 17676.74,12923.54 17756.11,11078.06 17521.3,11216.96 17336.09,11246.73 17279.86,11365.79 "
   id="polygon4078"
   style="fill:#808080" />
    <polygon
   class="fil4"
   points="17091.3,9354.91 17054.92,8928.27 17428.64,8660.37 17713.07,8518.16 17868.51,8402.41 17842.05,9232.54 17699.84,9209.39 "
   id="polygon4080"
   style="fill:#808080" />
    <polygon
   class="fil4"
   points="16787.47,7104.38 16823.85,7058.08 17283.56,6978.7 17845.8,6968.79 17859.03,7994.05 17749.89,7960.97 17422.47,8063.5 17088.43,8222.25 16909.84,8321.47 "
   id="polygon4082"
   style="fill:#808080" />
    <path
   class="fil5"
   d="m 16808.63,7222.67 c 22.23,-33.57 244.81,-62.23 297.63,-70.75 68.35,-11.03 167.57,-25.37 275.06,-31.43 107.49,-6.07 223.24,-3.86 347.27,3.31 124.02,7.16 256.31,19.29 354.43,30.87 98.11,11.57 162.06,22.6 195.13,28.11 33.07,5.51 35.28,5.51 32.52,49.61 -2.76,44.09 -10.47,132.29 -12.67,177.49 -2.21,45.2 1.09,47.4 -43,42.44 -44.1,-4.96 -135.6,-17.08 -224.89,-25.9 -89.3,-8.82 -176.4,-14.34 -281.13,-16.54 -104.73,-2.21 -227.1,-1.1 -340.1,3.31 -113,4.41 -216.63,12.12 -308.68,24.8 -92.06,12.68 -172.53,30.32 -212.77,39.14 -40.24,8.82 -40.24,8.82 -46.3,-37.48 -2.24,-17.11 -34.48,-213.99 -32.5,-216.98 z"
   id="path4084"
   inkscape:connector-curvature="0"
   style="fill:#333333" />
    <path
   class="fil6 str0"
   d="m 16818.17,9953.49 c 70.55,6.61 119.05,37.47 154.33,77.16 35.28,39.69 57.33,88.19 105.84,125.68 48.5,37.48 123.48,63.95 244.74,97.02 121.26,33.07 318.6,46.3 422.23,92.6 103.63,46.3 146.63,105.84 166.47,169.78 19.84,63.94 -13.24,158.74 -4.42,231.5 8.82,72.76 26.46,143.32 55.11,197.49 28.65,54.17 75.35,93 124.39,112.44 49.04,19.44 100.45,19.51 155.58,18.26 55.13,-1.25 106.97,-4.87 126.28,-64 19.3,-59.13 6.08,-173.79 14.9,-277.41 8.82,-103.63 39.68,-196.24 57.32,-266.79 17.64,-70.56 22.05,-119.06 17.64,-194.03 -4.41,-74.97 -17.64,-176.39 -13.23,-260.17 4.41,-83.79 26.46,-149.94 24.26,-202.85 -2.21,-52.92 -28.67,-92.61 -125.68,-176.39 -97.02,-83.79 -264.59,-211.67 -374.83,-297.66 -110.25,-85.99 -163.16,-130.08 -253.56,-132.28 -90.4,-2.21 -218.28,37.47 -328.52,68.34 -110.25,30.87 -202.85,52.91 -302.07,81.58 -99.22,28.66 -205.06,63.94 -302.07,77.17 -97.01,13.23 -185.21,4.41 -189.61,4.41 -4.41,0 74.96,8.82 169.77,-2.2 94.81,-11.03 205.06,-41.9 260.18,-59.54 55.12,-17.64 47.31,-21.45 46.3,-85.99 -6.59,-423.18 -132.84,-278.72 127.88,-458.6 80.61,-55.62 154.34,-116.86 191.82,-149.93 37.48,-33.08 41.89,-33.08 85.99,-48.51 44.1,-15.44 127.88,-46.31 218.27,-100.18 90.39,-53.87 187.39,-130.74 236.99,-202.8 49.6,-72.06 51.8,-139.3 34.18,-193.47 -17.63,-54.17 -55.1,-95.26 -84.85,-122.42 -29.76,-27.16 -51.81,-40.39 -100.32,-40.39 -48.51,0 -123.47,13.23 -196.23,37.49 -72.76,24.25 -143.32,59.52 -207.26,85.98 -63.94,26.46 -121.26,44.1 -196.22,81.59 -74.97,37.48 -167.58,94.8 -273.41,160.95 -105.83,66.14 -224.9,141.11 -288.84,187.41 -63.94,46.3 -72.76,63.94 -85.99,92.61 -13.23,28.66 -30.87,68.34 -55.12,136.7 -24.26,68.35 -55.12,165.36 -74.96,264.58 -19.85,99.22 -28.67,200.65 -59.54,288.84 -30.87,88.19 -83.78,163.16 -112.44,222.69 -28.67,59.53 -33.08,103.62 -52.92,176.39 -19.85,72.76 -55.12,174.18 -130.08,366.01 -74.97,191.82 -189.63,474.04 -253.57,705.55 -63.94,231.51 -77.17,412.31 -101.42,542.4 -24.26,130.08 -59.53,209.46 -79.37,308.68 -19.85,99.21 -24.26,218.28 -15.44,319.71 8.82,101.42 30.86,185.2 44.09,257.97 13.23,72.76 17.64,134.49 24.26,249.15 6.61,114.65 15.43,282.21 44.1,498.29 28.66,216.08 77.16,480.66 119.06,778.32 41.89,297.66 77.17,628.38 112.45,959.11 242.53,30.87 485.07,61.75 672.48,77.18 187.41,15.43 319.71,15.43 469.64,11.02 149.93,-4.41 317.5,-13.23 467.43,-30.87 149.93,-17.64 282.22,-44.1 348.37,-57.33 66.14,-13.23 66.14,-13.23 -15.44,-147.72 -81.58,-134.5 -244.74,-403.5 -388.05,-665.87 -143.32,-262.38 -266.8,-518.15 -366.01,-738.63 -99.22,-220.49 -174.19,-405.69 -224.9,-586.49 -50.71,-180.8 -77.17,-357.19 -90.4,-445.38 -13.23,-88.2 -13.23,-88.2 24.26,-99.22 37.48,-11.03 112.44,-33.08 160.95,-83.79 48.51,-50.71 70.55,-130.09 81.58,-174.18 11.02,-44.1 11.02,-52.92 37.48,-110.24 26.46,-57.33 79.37,-163.17 105.83,-216.08 26.46,-52.91 27.29,-53.34 27.29,-53.34 0,0 35.56,7.04 46.58,-30.44 11.02,-37.48 39.68,-95.92 48.5,-144.43 8.82,-48.51 -38.58,-93.7 4.32,-117.09 42.9,-23.39 76.9,-67.98 76.35,-134.68 -0.55,-66.7 -35.66,-155.51 -35.66,-155.51 0,0 58.47,154.09 167.55,173.81 109.08,19.72 167.1,-9.13 212.17,-33.17 45.07,-24.04 58.83,-33.98 73.33,-68.84 m 596.66,-393.22 c 5.72,-32.08 11.45,-64.17 -85.56,-182.49 -97.02,-118.33 -296.77,-322.91 -396.64,-425.19 -99.88,-102.29 -99.88,-102.29 -183.66,-102.29 -83.79,0 -251.36,0 -392.47,4.41 -141.11,4.41 -255.77,13.23 -330.73,11.03 -74.97,-2.21 -110.24,-15.44 -141.11,-33.08 -30.87,-17.64 -15.27,-6.07 -41.73,-28.12 m 1043.26,924.26 c -18.67,75.93 -51.4,153.51 -69.95,228.96 -18.55,75.45 -37.82,153.72 -97.2,211.6 -59.38,57.88 -159.71,98.67 -235.23,123.83 -75.52,25.15 -126.24,34.68 -176.96,44.2 m -426.6,-2907.02 c -41.89,-419.66 -83.79,-839.31 -104.73,-1049.14 -20.95,-209.83 -20.95,-209.83 14.33,-220.85 35.27,-11.03 105.83,-33.07 222.69,-55.12 116.85,-22.05 280.01,-44.1 427.74,-50.71 147.72,-6.62 280.02,2.2 421.13,22.05 141.11,19.84 291.04,50.7 366.01,66.14 74.96,15.43 74.96,15.43 46.55,418.42 -28.41,402.99 -85.24,1208.98 -142.06,2014.96 m -1105.86,-554.4 c -0.12,155.79 32.91,269.3 32.79,425.09 m 85.33,2178.09 c 46.52,451.37 93.04,902.74 114.1,1135.04 21.05,232.3 16.64,245.53 118.07,249.94 101.42,4.41 308.68,0 412.31,-2.2 103.63,-2.21 103.64,-2.21 124.58,-301.7 20.94,-299.49 105.83,-958.03 147.72,-1557.02 m 256.87,-1422.13 c -13.97,-66.88 -27.93,-133.75 -57.23,-182.8 -29.3,-49.05 -73.93,-80.27 -118.56,-111.49 m -435.92,-1365.01 c -66.38,40.3 -132.76,80.59 -173.66,111.77 -40.91,31.17 -56.35,53.21 -55.25,77.74 1.1,24.52 18.73,51.53 36.74,71.97 18,20.44 36.38,34.32 65.05,44.25 28.66,9.92 67.6,15.88 121.96,5.56 54.36,-10.33 124.12,-36.94 193.89,-63.56 3.09,-51.58 6.17,-103.16 -0.68,-138.24 -6.85,-35.08 -23.67,-53.68 -48.79,-69.7 -25.12,-16.03 -58.56,-29.5 -83.15,-35.7 -24.59,-6.2 -40.36,-5.15 -56.11,-4.09 z m 651.17,2756.85 c -16.53,23.15 -58.29,25.64 -70.41,58.16 -12.12,32.52 -19.85,74.41 -22.97,123.11 -3.12,48.69 -1.65,104.19 -0.17,159.69"
   id="path4086"
   inkscape:connector-curvature="0"
   style="fill:none;stroke:#000000;stroke-width:70.55999756;stroke-miterlimit:22.92560005" />
   </g>
   <g
   id="g4106">
    <g
   id="g4102">
     <polygon
   class="fil7"
   points="16948.78,7363.09 16945.82,7365.97 16942.98,7368.71 16940.2,7371.33 16937.43,7373.87 16934.6,7376.35 16931.65,7378.8 16928.52,7381.26 16990.17,7366.16 16992.68,7364.19 16995.04,7362.23 16997.3,7360.24 16999.52,7358.21 17001.74,7356.12 17004.01,7353.92 17006.38,7351.62 17008.91,7349.17 16951.94,7360.03 "
   id="polygon4090"
   style="fill:#000000" />
     <polygon
   class="fil7"
   points="16973.78,7339.14 16970.76,7341.71 16967.5,7344.69 16964.12,7347.93 16960.76,7351.25 16957.52,7354.49 16954.54,7357.47 16951.94,7360.03 17008.91,7349.17 17010.99,7347.12 17013.37,7344.74 17015.96,7342.15 17018.65,7339.49 17021.36,7336.9 17023.96,7334.52 17026.38,7332.46 17028.51,7330.88 16976.44,7337.16 "
   id="polygon4092"
   style="fill:#000000" />
     <polygon
   class="fil7"
   points="17074.98,7354.09 17052.37,7306.66 17006.27,7306.89 17034.53,7366.18 "
   id="polygon4094"
   style="fill:#000000" />
     <polygon
   class="fil7"
   points="17026.69,7287.57 17023.8,7290.45 17020.92,7293.35 17018.03,7296.24 17015.14,7299.07 17012.22,7301.82 17009.27,7304.44 17006.27,7306.89 17052.37,7306.66 17054.77,7304.7 17057.13,7302.6 17059.47,7300.4 17061.78,7298.14 17064.09,7295.83 17066.4,7293.51 17068.71,7291.2 17071.04,7288.95 17029.6,7284.75 "
   id="polygon4096"
   style="fill:#000000" />
     <polygon
   class="fil7"
   points="17038.56,7276.99 17014.92,7230.32 16959.46,7211.46 16989.01,7269.8 "
   id="polygon4098"
   style="fill:#000000" />
     <polygon
   class="fil7"
   points="17050.2,7264.04 17047.71,7267.12 17044.83,7270.28 17041.71,7273.43 17038.48,7276.53 17035.29,7279.49 17032.28,7282.25 17029.6,7284.75 17071.04,7288.95 17073.18,7286.95 17075.59,7284.74 17078.14,7282.37 17080.72,7279.89 17083.22,7277.37 17085.52,7274.84 17087.52,7272.38 17089.08,7270.02 17052.16,7261.09 "
   id="polygon4100"
   style="fill:#000000" />
    </g>
    <path
   class="fil8"
   d="m 16945.89,7275.96 -63,9 c 5.54,5.47 6.88,5.38 13.21,8.69 l 43.15,22.16 -10.73,65.45 c 8.65,-6.58 14.7,-12.81 23.42,-21.23 6.32,-6.11 18,-18.53 24.5,-22.87 18.66,5.95 38.27,22.21 58.09,29.02 l -28.26,-59.29 c 8.06,-6.29 15.53,-14.74 23.33,-22.14 6.59,-6.25 18.18,-16.04 22.56,-23.66 l -63.15,8.71 -29.55,-58.34 c -7.24,16.74 -7.05,49.21 -13.57,64.5 z"
   id="path4104"
   inkscape:connector-curvature="0"
   style="fill:#cccccc" />
   </g>
   <g
   id="g4124">
    <g
   id="g4120">
     <polygon
   class="fil7"
   points="18213.29,7356.32 18216.25,7359.2 18219.09,7361.94 18221.87,7364.56 18224.64,7367.1 18227.47,7369.58 18230.42,7372.03 18233.55,7374.49 18164.51,7346.52 18162.01,7344.55 18159.65,7342.59 18157.38,7340.61 18155.17,7338.58 18152.94,7336.48 18150.67,7334.29 18148.3,7331.98 18145.78,7329.54 18210.13,7353.26 "
   id="polygon4108"
   style="fill:#000000" />
     <polygon
   class="fil7"
   points="18188.29,7332.37 18191.31,7334.94 18194.57,7337.92 18197.95,7341.16 18201.31,7344.48 18204.55,7347.72 18207.53,7350.7 18210.13,7353.26 18145.78,7329.54 18143.7,7327.49 18141.31,7325.1 18138.72,7322.51 18136.03,7319.86 18133.33,7317.26 18130.72,7314.88 18128.3,7312.82 18126.18,7311.24 18185.63,7330.39 "
   id="polygon4110"
   style="fill:#000000" />
     <polygon
   class="fil7"
   points="18079.7,7334.46 18102.31,7287.02 18155.8,7300.12 18127.54,7359.41 "
   id="polygon4112"
   style="fill:#000000" />
     <polygon
   class="fil7"
   points="18135.38,7280.8 18138.27,7283.68 18141.15,7286.58 18144.04,7289.47 18146.93,7292.3 18149.85,7295.05 18152.8,7297.67 18155.8,7300.12 18102.31,7287.02 18099.91,7285.06 18097.55,7282.97 18095.22,7280.77 18092.9,7278.5 18090.59,7276.19 18088.29,7273.87 18085.98,7271.57 18083.65,7269.31 18132.47,7277.98 "
   id="polygon4114"
   style="fill:#000000" />
     <polygon
   class="fil7"
   points="18111.87,7257.27 18114.36,7260.35 18117.24,7263.51 18120.36,7266.66 18123.59,7269.76 18126.78,7272.72 18129.79,7275.48 18132.47,7277.98 18083.65,7269.31 18081.5,7267.31 18079.1,7265.1 18076.54,7262.74 18073.96,7260.26 18071.46,7257.74 18069.16,7255.21 18067.17,7252.74 18065.6,7250.38 18109.91,7254.32 "
   id="polygon4116"
   style="fill:#000000" />
     <polygon
   class="fil7"
   points="18116.12,7257.35 18139.76,7210.68 18202.61,7204.69 18173.06,7263.03 "
   id="polygon4118"
   style="fill:#000000" />
    </g>
    <path
   class="fil8"
   d="m 18216.18,7269.19 63,9 c -5.54,5.47 -6.88,5.38 -13.21,8.69 l -43.15,22.16 10.73,65.45 c -8.65,-6.58 -14.7,-12.81 -23.42,-21.23 -6.32,-6.11 -18,-18.53 -24.5,-22.87 -18.66,5.95 -38.27,22.21 -58.09,29.02 l 28.26,-59.29 c -8.06,-6.29 -15.53,-14.74 -23.33,-22.14 -6.59,-6.25 -18.18,-16.04 -22.56,-23.66 l 63.15,8.71 29.55,-58.34 c 7.24,16.74 7.05,49.21 13.57,64.5 z"
   id="path4122"
   inkscape:connector-curvature="0"
   style="fill:#cccccc" />
   </g>
   <g
   id="g4182">
    <polygon
   class="fil7"
   points="17945.38,7390.92 17931.54,7230.8 18029,7219.93 18046.3,7420.07 "
   id="polygon4126"
   style="fill:#000000" />
    <polygon
   class="fil7"
   points="17956.61,7342.75 17956.77,7346.15 17957.58,7349.36 17958.98,7352.32 17960.89,7354.94 17963.27,7357.16 17966.04,7358.9 17969.13,7360.09 17883.64,7342.93 17881.17,7341.98 17878.95,7340.59 17877.05,7338.81 17875.52,7336.72 17874.4,7334.35 17873.75,7331.78 17873.63,7329.06 17873.63,7329.04 17874.04,7326.36 17874.97,7323.89 17876.33,7321.69 17878.08,7319.81 17880.15,7318.3 17882.51,7317.2 17885.07,7316.59 17887.78,7316.49 17939.93,7319.92 18039.49,7331.33 17974.3,7327.04 17970.91,7327.16 17967.71,7327.93 17964.77,7329.3 17962.18,7331.19 17959.99,7333.54 17958.29,7336.29 17957.13,7339.37 17956.61,7342.72 "
   id="polygon4128"
   style="fill:#000000" />
    <polygon
   class="fil7"
   points="17931.54,7230.8 17902.4,7227.96 17992.58,7216.38 18029,7219.93 "
   id="polygon4130"
   style="fill:#000000" />
    <polygon
   class="fil7"
   points="17832.42,7384.48 17882.5,7170.3 17967.7,7144.3 17905.1,7412.02 "
   id="polygon4132"
   style="fill:#000000" />
    <polygon
   class="fil7"
   points="17854.76,7223.88 17858.46,7168.38 17937.65,7141.9 17933.03,7211.27 "
   id="polygon4134"
   style="fill:#000000" />
    <polygon
   class="fil7"
   points="17903.77,7227.24 17854.76,7223.88 17933.03,7211.27 17994.29,7215.47 "
   id="polygon4136"
   style="fill:#000000" />
    <polygon
   class="fil7"
   points="17727.65,7338.67 17767.64,7340.05 17824.13,7356.49 17774.14,7354.76 "
   id="polygon4138"
   style="fill:#000000" />
    <polygon
   class="fil7"
   points="17756.03,7203.04 17728.28,7199.84 17774.93,7181.22 17809.62,7185.23 "
   id="polygon4140"
   style="fill:#000000" />
    <polygon
   class="fil7"
   points="17767.64,7340.05 17771.86,7287.44 17829.4,7290.72 17824.13,7356.49 "
   id="polygon4142"
   style="fill:#000000" />
    <polygon
   class="fil7"
   points="17690,7381.08 17693.35,7152.51 17731.26,7122.06 17727.08,7407.77 "
   id="polygon4144"
   style="fill:#000000" />
    <polygon
   class="fil7"
   points="17753.59,7245.86 17756.03,7203.04 17809.62,7185.23 17806.57,7238.75 "
   id="polygon4146"
   style="fill:#000000" />
    <polygon
   class="fil7"
   points="17418.07,7153.36 17417.25,7208.92 17386.14,7192.58 17387.16,7123.12 "
   id="polygon4148"
   style="fill:#000000" />
    <polygon
   class="fil7"
   points="17417.25,7208.92 17364.67,7208.5 17320.41,7192.05 17386.14,7192.58 "
   id="polygon4150"
   style="fill:#000000" />
    <polygon
   class="fil7"
   points="17447.13,7210.84 17415.83,7209.74 17384.36,7193.6 17423.49,7194.98 "
   id="polygon4152"
   style="fill:#000000" />
    <polygon
   class="fil7"
   points="17415.83,7209.74 17393.17,7380.34 17356.04,7406.85 17384.36,7193.6 "
   id="polygon4154"
   style="fill:#000000" />
    <polygon
   class="fil7"
   points="17468.79,7154.11 17514.67,7376.97 17507.91,7402.64 17450.57,7124.06 "
   id="polygon4156"
   style="fill:#000000" />
    <polygon
   class="fil7"
   points="17590.16,7205.54 17541.1,7203.43 17540.95,7185.71 17602.28,7188.35 "
   id="polygon4158"
   style="fill:#000000" />
    <path
   class="fil7"
   d="m 17641.44,7317.42 z m 24.94,10.78 z"
   id="path4160"
   inkscape:connector-curvature="0"
   style="fill:#000000" />
    <polygon
   class="fil7"
   points="17635.47,7377.63 17618.01,7208.51 17637.09,7192.06 17658.92,7403.46 "
   id="polygon4162"
   style="fill:#000000" />
    <polygon
   class="fil7"
   points="17567.76,7327.81 17568.7,7331.19 17563.3,7319.81 17562.55,7317.11 17562.34,7314.23 17567.5,7324.21 "
   id="polygon4164"
   style="fill:#000000" />
    <polygon
   class="fil7"
   points="17568.98,7302.67 17571.44,7301.44 17574.13,7300.72 17577,7300.55 17627.62,7302.59 17630.47,7303 17652.67,7310.17 17649.1,7309.66 17585.83,7307.11 17582.24,7307.33 17578.88,7308.23 17575.8,7309.76 17573.1,7311.83 17570.85,7314.38 17569.11,7317.34 17567.97,7320.64 17567.5,7324.21 17562.34,7314.23 17562.71,7311.37 17563.63,7308.73 17565.02,7306.36 17566.82,7304.32 "
   id="polygon4166"
   style="fill:#000000" />
    <polygon
   class="fil7"
   points="17618.01,7208.51 17588.82,7206.36 17600.6,7189.37 17637.09,7192.06 "
   id="polygon4168"
   style="fill:#000000" />
    <polygon
   class="fil7"
   points="17522.4,7374.12 17567.61,7145.88 17574.09,7113.78 17517.58,7399.08 "
   id="polygon4170"
   style="fill:#000000" />
    <polygon
   class="fil7"
   points="17312.83,7163.69 17313.11,7221.61 17255.96,7208.44 17255.62,7136.04 "
   id="polygon4172"
   style="fill:#000000" />
    <polygon
   class="fil7"
   points="17313.11,7221.61 17242.55,7227.94 17167.76,7216.35 17255.96,7208.44 "
   id="polygon4174"
   style="fill:#000000" />
    <polygon
   class="fil7"
   points="17242.55,7227.94 17245.67,7339.93 17171.66,7356.34 17167.76,7216.35 "
   id="polygon4176"
   style="fill:#000000" />
    <polygon
   class="fil7"
   points="17245.67,7339.93 17317.55,7332.29 17261.52,7346.79 17171.66,7356.34 "
   id="polygon4178"
   style="fill:#000000" />
    <polygon
   class="fil7"
   points="17317.55,7332.29 17321.79,7383.61 17266.81,7410.94 17261.52,7346.79 "
   id="polygon4180"
   style="fill:#000000" />
   </g>
   <g
   id="g4210">
    <polygon
   class="fil9"
   points="17167.76,7216.35 17171.66,7356.34 17261.52,7346.79 17266.81,7410.94 17115.19,7426.86 17110.62,7150.3 17255.62,7136.04 17255.96,7208.44 "
   id="polygon4184"
   style="fill:#b3b3b3;fill-rule:nonzero" />
    <g
   id="g4192">
     <polygon
   class="fil9"
   points="17517.58,7399.08 17574.09,7113.78 17664.04,7118.31 17708.07,7406.09 17658.92,7403.46 17637.09,7192.06 17600.6,7189.37 17569.42,7400.59 "
   id="polygon4186"
   style="fill:#b3b3b3;fill-rule:nonzero" />
     <path
   class="fil10"
   d="m 17585.83,7307.11 63.27,2.55 c 9.8,0.4 17.57,8.73 17.28,18.54 v 0 c -0.29,9.81 -8.53,17.5 -18.33,17.1 l -63.27,-2.55 c -9.8,-0.4 -17.56,-8.73 -17.28,-18.54 v 0 c 0.29,-9.81 8.54,-17.5 18.33,-17.1 z"
   id="path4188"
   inkscape:connector-curvature="0"
   style="fill:#b3b3b3" />
     <polygon
   class="fil10"
   points="17604.87,7115.32 17602.28,7188.35 17540.95,7185.71 17543.99,7112.12 "
   id="polygon4190"
   style="fill:#b3b3b3" />
    </g>
    <g
   id="g4198">
     <polygon
   class="fil9"
   points="17300.5,7405.43 17354.17,7122.65 17450.57,7124.06 17507.91,7402.64 17450.26,7400.08 17423.49,7194.98 17384.36,7193.6 17356.04,7406.85 "
   id="polygon4194"
   style="fill:#b3b3b3;fill-rule:nonzero" />
     <polygon
   class="fil10"
   points="17387.16,7123.12 17386.14,7192.58 17320.41,7192.05 17321.91,7122.04 "
   id="polygon4196"
   style="fill:#b3b3b3" />
    </g>
    <path
   class="fil10"
   d="m 17883.02,7415.04 -155.94,-7.27 4.18,-285.71 122.67,5 -0.35,112.39 30.16,3.7 z m -106.59,-127.09 -2.29,66.81 49.99,1.73 5.27,-65.77 z m 33.19,-102.72 -34.69,-4.01 -0.87,55.32 32.51,2.21 z"
   id="path4200"
   inkscape:connector-curvature="0"
   style="fill:#b3b3b3" />
    <g
   id="g4208">
     <polygon
   class="fil9"
   points="17905.1,7412.02 17967.7,7144.3 18057.52,7151.07 18095.37,7423.92 18046.3,7420.07 18029,7219.93 17992.58,7216.38 17956.89,7414.89 "
   id="polygon4202"
   style="fill:#b3b3b3;fill-rule:nonzero" />
     <path
   class="fil10"
   d="m 17974.3,7327.04 65.19,4.29 c 9.24,0.61 16.38,8.66 15.88,17.9 v 0.03 c -0.5,9.25 -8.45,16.29 -17.7,15.68 l -65.18,-4.29 c -9.25,-0.61 -16.38,-8.65 -15.88,-17.9 v -0.03 c 0.5,-9.23 8.45,-16.29 17.69,-15.68 z"
   id="path4204"
   inkscape:connector-curvature="0"
   style="fill:#b3b3b3" />
     <polygon
   class="fil10"
   points="17998.44,7146.61 17994.29,7215.47 17933.03,7211.27 17937.65,7141.9 "
   id="polygon4206"
   style="fill:#b3b3b3" />
    </g>
   </g>
  </g>
 </g>
<path
   inkscape:connector-curvature="0"
   style="fill:#f3f3f3;stroke-width:27.00730324"
   d="m 1198.5474,994.74663 c 0,48.12897 -11.8537,91.63197 -35.5638,130.50787 -23.7069,38.255 -57.0281,69.108 -99.9587,92.556 -42.2937,22.832 -91.31212,36.406 -147.06022,40.727 v 59.238 h -72.0884 v -58.315 c -56.3882,-4.318 -106.0496,-18.202 -148.9803,-41.65 -42.9335,-23.448 -76.5735,-54.609 -100.9235,-93.483 -23.7098,-38.8749 -35.5628,-82.3779 -35.5628,-130.50787 0,-49.982 11.853,-94.717 35.5628,-134.21 23.71,-39.493 57.0294,-71.269 99.9619,-95.335 43.5739,-24.064 93.5537,-38.257 149.9419,-42.577 v -65.717 h 72.0884 v 66.643 c 55.7481,4.318 104.76652,18.821 147.06022,43.504 42.9306,24.063 76.2518,55.842 99.9587,95.333 23.7101,39.492 35.5638,83.919 35.5638,133.286 z m -567.08882,0 c 0,37.63997 8.9694,71.57797 26.913,101.81187 17.9408,30.237 42.9307,54.919 74.9699,74.048 32.0414,18.512 68.8842,29.928 110.5348,34.245 V 777.23263 c -41.6506,4.321 -78.4934,16.353 -110.5348,36.097 -32.0392,19.13 -57.0291,44.43 -74.9699,75.899 -17.9436,31.47 -26.913,66.64 -26.913,105.518 z m 284.5061,210.10487 c 41.0105,-4.317 77.21334,-16.042 108.61262,-35.17 32.0383,-19.13 56.7097,-43.505 74.0103,-73.123 17.9408,-30.2339 26.9132,-64.1719 26.9132,-101.81187 0,-38.259 -8.9724,-73.123 -26.9132,-104.591 -17.3006,-31.472 -41.972,-56.77 -74.0103,-75.899 -31.39928,-19.745 -67.60212,-32.087 -108.61262,-37.024 z M 1730.4267,868.86563 v 433.17287 h -65.3586 v -63.864 c -18.5838,24.681 -41.3312,44.119 -68.2443,58.311 -26.9129,13.576 -56.3891,20.363 -88.4274,20.363 -42.9305,0 -81.3782,-9.874 -115.3401,-29.619 -33.9614,-19.744 -60.5528,-47.206 -79.7768,-82.378 -19.2236,-35.17 -28.8349,-75.28 -28.8349,-120.3249 0,-44.427 9.2929,-83.92 27.8734,-118.47597 19.224,-35.171 45.497,-62.63 78.8162,-82.375 33.961,-19.747 72.4086,-29.618 115.3391,-29.618 32.6815,0 62.4761,7.094 89.392,21.287 27.5523,13.577 50.619,33.014 69.2028,58.311 v -64.79 z m -223.9534,390.59487 c 30.7594,0 57.9929,-7.402 81.6997,-22.213 24.3501,-14.808 43.2523,-35.479 56.7099,-62.015 13.4554,-26.531 20.1852,-56.458 20.1852,-89.7799 0,-33.321 -6.7298,-63.248 -20.1852,-89.78197 -13.4576,-26.533 -32.3598,-47.204 -56.7099,-62.015 -23.7068,-14.808 -50.9403,-22.214 -81.6997,-22.214 -30.1162,0 -57.0281,7.406 -80.7349,22.214 -23.7097,14.811 -42.2936,35.482 -55.749,62.015 -13.4575,25.91497 -20.1853,55.53397 -20.1853,88.85597 0,33.9379 6.7278,64.1749 20.1853,90.7059 13.4554,26.536 32.0393,47.207 55.749,62.015 23.7068,14.811 50.6187,22.213 80.7349,22.213 z m 714.668,42.578 h -74.0033 l -158.5926,-196.222 h -72.0873 v 196.222 h -65.3576 V 868.86563 h 65.3576 v 179.56297 h 73.0488 l 140.3305,-179.56297 h 73.0468 l -163.3944,205.47997 z m 269.0458,-447.98087 c 40.3491,0 76.8899,9.562 109.5692,28.692 32.6782,19.129 58.3082,45.353 76.8899,78.675 18.5807,32.703 27.8716,69.41897 27.8716,110.14397 0,11.724 -0.3247,20.6719 -0.9728,26.8429 h -370.054 c 2.5661,44.427 17.6355,82.377 45.1834,113.846 27.5469,31.469 65.0338,47.203 112.458,47.203 38.4586,0 70.1651,-6.786 95.147,-20.36 25.6299,-14.193 46.1551,-33.63 61.5225,-58.312 l 51.9082,33.32 c -21.147,32.087 -49.0185,57.387 -83.6147,75.897 -34.6228,17.896 -75.6201,26.843 -123.045,26.843 -43.5625,0 -82.345,-9.874 -116.294,-29.619 -33.9747,-19.744 -60.5498,-47.206 -79.7785,-82.378 -19.2301,-35.17 -28.8445,-74.972 -28.8445,-119.3989 0,-44.43 9.2909,-84.228 27.8717,-119.40197 19.2288,-35.171 45.507,-62.63 78.8343,-82.375 33.948,-19.747 72.4069,-29.618 115.3477,-29.618 z m 148.9731,192.52097 c -6.401,-45.045 -22.1195,-78.67497 -47.1013,-100.88797 -24.9819,-22.833 -58.9565,-34.249 -101.8718,-34.249 -41.6721,0 -75.9437,12.959 -102.87,38.875 -26.2516,25.301 -42.9153,57.38797 -49.9636,96.26197 z m 125.3132,198.0749 h 29.7897 c 26.9262,0 48.073,-22.522 63.4394,-67.568 15.3949,-45.663 23.0914,-114.7729 23.0914,-207.33187 v -100.888 h 296.0273 v 433.17287 h -65.3575 V 926.25363 h -169.1739 v 61.087 c 0,96.25997 -11.2077,172.77687 -33.6244,229.54587 -21.7951,56.767 -60.8743,85.152 -117.2656,85.152 h -26.9264 z"
   id="path3790" /></svg>