<?xml version="1.0" encoding="utf-8"?><svg xmlns="http://www.w3.org/2000/svg" xmlns:xlink="http://www.w3.org/1999/xlink"><symbol viewBox="0 0 24 24" id="arrow-bread-crumbs" xmlns="http://www.w3.org/2000/svg"><path d="m9 18 6-6-6-6" stroke="#202020" stroke-width="2" stroke-linecap="round" stroke-linejoin="round"/></symbol><symbol viewBox="0 0 12 8" id="arrow-down_corner" xmlns="http://www.w3.org/2000/svg"><path d="m6 7.4-6-6L1.4 0 6 4.6 10.6 0 12 1.4l-6 6z"/></symbol><symbol viewBox="0 0 367.467 367.467" id="copyright" xmlns="http://www.w3.org/2000/svg"><path d="M183.73.018C82.427.018 0 82.404 0 183.733c0 101.289 82.427 183.716 183.73 183.716 101.315 0 183.737-82.427 183.737-183.716C367.467 82.404 285.045.018 183.73.018zm0 326.5c-78.743 0-142.798-64.052-142.798-142.784 0-78.766 64.055-142.817 142.798-142.817 78.752 0 142.807 64.052 142.807 142.817-.001 78.732-64.056 142.784-142.807 142.784z"/><path d="M244.036 217.014c-11.737 20.141-33.562 32.635-56.956 32.635-36.329 0-65.921-29.585-65.921-65.915 0-36.36 29.592-65.955 65.921-65.955 23.395 0 45.219 12.54 56.956 32.641l1.517 2.627h44.28l-2.658-7.129c-7.705-20.413-21.225-37.769-39.122-50.157-17.942-12.42-39.017-19.009-60.973-19.009-58.981 0-106.946 48.006-106.946 106.982 0 58.98 47.965 106.941 106.946 106.941 21.956 0 43.03-6.567 60.973-19.006 17.897-12.391 31.417-29.741 39.122-50.154l2.658-7.133h-44.28l-1.517 2.632z"/></symbol><symbol viewBox="0 0 20 16" id="envelope" xmlns="http://www.w3.org/2000/svg"><path d="M18 0H2C.9 0 .01.9.01 2L0 14c0 1.1.9 2 2 2h16c1.1 0 2-.9 2-2V2c0-1.1-.9-2-2-2zm0 4-8 5-8-5V2l8 5 8-5v2z"/></symbol><symbol viewBox="0 0 40 40" id="pagination-arrow-left" xmlns="http://www.w3.org/2000/svg"><path d="M25 30 15 20l10-10" stroke="#202020" stroke-width="2" stroke-linecap="round" stroke-linejoin="round"/></symbol><symbol viewBox="0 0 40 40" id="pagination-arrow-right" xmlns="http://www.w3.org/2000/svg"><path d="m15 30 10-10-10-10" stroke="#202020" stroke-width="2" stroke-linecap="round" stroke-linejoin="round"/></symbol><symbol viewBox="0 0 40 40" id="pagination-db-arrow-right" xmlns="http://www.w3.org/2000/svg"><path d="m24 29.5 10-10-10-10m-18 20 10-10-10-10" stroke="#202020" stroke-width="2" stroke-linecap="round" stroke-linejoin="round"/></symbol><symbol viewBox="0 0 18 18" id="phone" xmlns="http://www.w3.org/2000/svg"><path d="M3.62 7.79c1.44 2.83 3.76 5.14 6.59 6.59l2.2-2.2c.27-.27.67-.36 1.02-.24 1.12.37 2.33.57 3.57.57.55 0 1 .45 1 1V17c0 .55-.45 1-1 1C7.61 18 0 10.39 0 1c0-.55.45-1 1-1h3.5c.55 0 1 .45 1 1 0 1.25.2 2.45.57 3.57.11.35.03.74-.25 1.02l-2.2 2.2z"/></symbol><symbol viewBox="0 0 30 30" id="search" xmlns="http://www.w3.org/2000/svg"><path d="M26.5 28.833 17.167 19.5a9.932 9.932 0 0 1-2.875 1.583 10.159 10.159 0 0 1-3.459.584c-3.027 0-5.59-1.049-7.686-3.145C1.049 16.424 0 13.862 0 10.833c0-3.027 1.049-5.59 3.147-7.688C5.243 1.048 7.806 0 10.833 0c3.028 0 5.59 1.048 7.689 3.145 2.096 2.098 3.145 4.66 3.145 7.688a10.16 10.16 0 0 1-.584 3.459 9.932 9.932 0 0 1-1.583 2.875l9.375 9.375c.306.305.458.68.458 1.125 0 .444-.166.833-.5 1.166-.305.306-.694.459-1.166.459-.473 0-.861-.153-1.167-.459zm-15.667-10.5c2.084 0 3.855-.729 5.314-2.186 1.457-1.46 2.186-3.23 2.186-5.314 0-2.083-.729-3.854-2.186-5.313-1.46-1.458-3.23-2.187-5.314-2.187-2.083 0-3.854.73-5.313 2.187-1.458 1.459-2.187 3.23-2.187 5.313 0 2.084.73 3.855 2.187 5.314 1.459 1.457 3.23 2.186 5.313 2.186z"/></symbol><symbol viewBox="0 0 24 24" id="star" xmlns="http://www.w3.org/2000/svg"><path d="m12 .587 3.668 7.568L24 9.306l-6.064 5.828 1.48 8.279L12 19.446l-7.417 3.967 1.481-8.279L0 9.306l8.332-1.151z"/></symbol><symbol viewBox="0 0 28 28" id="swiper-gallery-arrow-left" xmlns="http://www.w3.org/2000/svg"><path d="m17.563 24.375-9.605-9.576a.994.994 0 0 1-.242-.37A1.253 1.253 0 0 1 7.645 14c0-.152.023-.295.071-.428a.994.994 0 0 1 .242-.37l9.604-9.605c.266-.266.599-.399.998-.399a1.4 1.4 0 0 1 1.026.428c.285.285.428.617.428.997s-.143.713-.428.998L11.207 14l8.379 8.379c.266.266.399.593.399.982 0 .39-.142.728-.427 1.013a1.367 1.367 0 0 1-.998.427c-.38 0-.712-.142-.997-.427z"/></symbol><symbol viewBox="0 0 28 28" id="swiper-gallery-arrow-right" xmlns="http://www.w3.org/2000/svg"><path d="m10.438 24.375 9.604-9.576a.993.993 0 0 0 .242-.37c.047-.134.072-.276.072-.428 0-.152-.025-.295-.072-.428a.993.993 0 0 0-.242-.37l-9.605-9.605A1.353 1.353 0 0 0 9.44 3.2a1.4 1.4 0 0 0-1.026.428 1.367 1.367 0 0 0-.428.997c0 .38.143.713.428.998L16.793 14l-8.379 8.38a1.336 1.336 0 0 0-.399.982c0 .39.142.728.427 1.013.285.285.618.427.998.427s.713-.142.998-.427z"/></symbol><symbol viewBox="0 0 31 31" id="telegram" xmlns="http://www.w3.org/2000/svg"><path d="M15.5.917C7.45.917.917 7.45.917 15.5S7.45 30.083 15.5 30.083 30.083 23.55 30.083 15.5 23.55.917 15.5.917zm6.767 9.916c-.22 2.304-1.167 7.904-1.648 10.486-.205 1.093-.613 1.458-.992 1.502-.846.073-1.488-.555-2.304-1.094-1.284-.846-2.013-1.37-3.252-2.188-1.444-.948-.51-1.473.32-2.318.22-.22 3.953-3.617 4.025-3.923a.292.292 0 0 0-.072-.263c-.088-.073-.205-.043-.307-.029-.13.03-2.173 1.386-6.154 4.069-.583.394-1.108.598-1.575.583-.525-.014-1.517-.292-2.26-.54-.919-.291-1.634-.451-1.575-.962.029-.262.394-.525 1.079-.802 4.258-1.852 7.087-3.077 8.502-3.66 4.054-1.692 4.885-1.984 5.44-1.984.116 0 .393.03.568.175.146.117.19.277.204.394-.014.088.015.35 0 .554z"/></symbol><symbol viewBox="0 0 29 30" id="viber" xmlns="http://www.w3.org/2000/svg"><path fill-rule="evenodd" clip-rule="evenodd" d="M21.319.833a31.937 31.937 0 0 0-13.934 0l-.495.11a7.153 7.153 0 0 0-5.372 5.22 28.39 28.39 0 0 0 0 13.966 7.153 7.153 0 0 0 5.022 5.134l.678 4.048a.73.73 0 0 0 1.205.423l3.983-3.563c2.99.183 5.99-.056 8.913-.71l.496-.11a7.153 7.153 0 0 0 5.372-5.22 28.392 28.392 0 0 0 0-13.967 7.153 7.153 0 0 0-5.374-5.22L21.32.833zM8.615 6.045a1.199 1.199 0 0 0-.783.154h-.02a5.99 5.99 0 0 0-1.46 1.2c-.35.405-.54.813-.589 1.207-.03.233-.009.47.06.692l.026.015c.394 1.156.907 2.27 1.534 3.316a19.5 19.5 0 0 0 2.96 4.047l.036.05.055.04.034.04.04.035a19.778 19.778 0 0 0 4.058 2.975c1.684.917 2.706 1.35 3.32 1.531v.009c.18.055.343.08.508.08a2.348 2.348 0 0 0 1.405-.604c.474-.42.875-.914 1.188-1.464v-.01c.293-.554.194-1.076-.23-1.43a17.683 17.683 0 0 0-2.743-1.97c-.653-.354-1.316-.14-1.585.22l-.573.723c-.294.358-.828.309-.828.309l-.015.008c-3.982-1.016-5.046-5.048-5.046-5.048s-.05-.549.32-.829l.717-.577c.344-.28.584-.942.215-1.595a17.22 17.22 0 0 0-1.965-2.742 1.09 1.09 0 0 0-.641-.384l.002.002zm6.73-1.753a.73.73 0 0 0 0 1.458c1.844 0 3.375.602 4.587 1.757a6.461 6.461 0 0 1 1.426 2.2c.32.82.466 1.697.428 2.575a.729.729 0 1 0 1.458.061 7.815 7.815 0 0 0-.526-3.164 7.937 7.937 0 0 0-1.756-2.704l-.015-.015c-1.503-1.436-3.406-2.168-5.603-2.168zm-.05 2.397a.73.73 0 0 0 0 1.459h.024c1.33.094 2.299.538 2.977 1.266.695.75 1.056 1.681 1.028 2.833a.73.73 0 0 0 1.458.034c.035-1.513-.452-2.818-1.417-3.86V8.42c-.987-1.06-2.342-1.62-3.973-1.73l-.024-.003-.073.001zm-.028 2.443a.729.729 0 1 0-.076 1.456c.61.032 1 .215 1.244.462.247.248.43.646.464 1.268a.728.728 0 1 0 1.455-.077c-.046-.875-.32-1.648-.882-2.216-.564-.57-1.333-.846-2.205-.893z"/></symbol><symbol viewBox="0 0 31 31" id="vk" xmlns="http://www.w3.org/2000/svg"><path d="M19.981.917h-8.948C2.86.917.917 2.86.917 11.018v8.949c0 8.17 1.929 10.116 10.101 10.116h8.949c8.17 0 10.116-1.93 10.116-10.102v-8.948c0-8.173-1.93-10.116-10.102-10.116zm4.482 20.81h-2.128c-.805 0-1.047-.652-2.49-2.096-1.26-1.215-1.793-1.366-2.112-1.366-.44 0-.562.12-.562.729v1.913c0 .518-.168.821-1.52.821a8.3 8.3 0 0 1-6.486-3.889 16.954 16.954 0 0 1-3.357-7.048c0-.32.12-.608.729-.608h2.126c.547 0 .744.243.958.805 1.033 3.039 2.794 5.681 3.509 5.681.274 0 .394-.12.394-.805v-3.13c-.09-1.427-.849-1.548-.849-2.064a.526.526 0 0 1 .545-.487h3.343c.456 0 .608.227.608.774v4.223c0 .457.197.609.334.609.274 0 .486-.152.987-.654a17.502 17.502 0 0 0 2.614-4.346.916.916 0 0 1 .926-.606h2.127c.638 0 .773.32.638.774a26.542 26.542 0 0 1-2.856 4.907c-.229.35-.32.533 0 .942.212.32.957.943 1.459 1.535a9.458 9.458 0 0 1 1.792 2.49c.182.593-.123.896-.73.896z"/></symbol><symbol viewBox="0 0 7.937 7.938" id="whatsapp" xmlns="http://www.w3.org/2000/svg"><path d="M7.934 1.805a4.206 4.206 0 0 0-.041-.51A1.53 1.53 0 0 0 6.647.047a4.176 4.176 0 0 0-.513-.04A6.54 6.54 0 0 0 5.924 0H2.013a6.54 6.54 0 0 0-.21.004c-.17.003-.34.017-.508.04A1.53 1.53 0 0 0 .047 1.29a4.032 4.032 0 0 0-.042.514 7.957 7.957 0 0 0-.004.21L0 5.923a5.903 5.903 0 0 0 .044.719A1.53 1.53 0 0 0 1.29 7.891a5.903 5.903 0 0 0 .724.046h3.909c.043 0 .137 0 .21-.003.17-.004.34-.017.509-.041a1.53 1.53 0 0 0 1.25-1.246 4.18 4.18 0 0 0 .041-.513c.003-.073.004-.167.004-.21v-3.91a6.55 6.55 0 0 0-.003-.21zM4.054 6.73c-.473 0-.938-.118-1.352-.344l-1.5.393.401-1.466A2.83 2.83 0 1 1 4.055 6.73z"/><path d="M4.056 1.548a2.352 2.352 0 0 0-1.993 3.603l.056.088-.238.868.89-.233.086.05a2.352 2.352 0 1 0 1.199-4.377zM5.44 4.91a.728.728 0 0 1-.477.336.97.97 0 0 1-.446-.028 4.08 4.08 0 0 1-.402-.149 3.151 3.151 0 0 1-1.208-1.067 1.375 1.375 0 0 1-.289-.731.793.793 0 0 1 .248-.59.26.26 0 0 1 .188-.088c.047 0 .094 0 .136.002.043.002.101-.016.158.122.06.141.201.49.219.524a.13.13 0 0 1 .006.124.483.483 0 0 1-.071.118c-.036.041-.074.092-.106.124-.036.035-.072.073-.031.144.106.182.238.347.393.49.168.149.36.268.569.35.07.036.112.03.153-.017.041-.047.176-.207.224-.277.047-.07.094-.059.158-.036.065.024.413.195.484.23.07.036.118.053.135.083a.59.59 0 0 1-.041.336z"/></symbol></svg>