<svg width="14" height="22" viewBox="0 0 14 22" fill="none" xmlns="http://www.w3.org/2000/svg">
<path d="M10.5625 21.3747L0.958031 11.7987C0.844031 11.6847 0.763471 11.5612 0.716351 11.4282C0.668471 11.2952 0.644531 11.1527 0.644531 11.0007C0.644531 10.8487 0.668471 10.7062 0.716351 10.5732C0.763471 10.4402 0.844031 10.3167 0.958031 10.2027L10.5625 0.598219C10.8285 0.332219 11.161 0.199219 11.56 0.199219C11.959 0.199219 12.301 0.341719 12.586 0.626719C12.871 0.911719 13.0135 1.24422 13.0135 1.62422C13.0135 2.00422 12.871 2.33672 12.586 2.62172L4.20703 11.0007L12.586 19.3797C12.852 19.6457 12.985 19.9733 12.985 20.3624C12.985 20.7523 12.8425 21.0897 12.5575 21.3747C12.2725 21.6597 11.94 21.8022 11.56 21.8022C11.18 21.8022 10.8475 21.6597 10.5625 21.3747Z" fill="#202020"/>
</svg>
