<svg width="31" height="31" xmlns="http://www.w3.org/2000/svg"><path d="M15.5.917C7.45.917.917 7.45.917 15.5S7.45 30.083 15.5 30.083 30.083 23.55 30.083 15.5 23.55.917 15.5.917zm6.767 9.916c-.22 2.304-1.167 7.904-1.648 10.486-.205 1.093-.613 1.458-.992 1.502-.846.073-1.488-.555-2.304-1.094-1.284-.846-2.013-1.37-3.252-2.188-1.444-.948-.51-1.473.32-2.318.22-.22 3.953-3.617 4.025-3.923a.292.292 0 00-.072-.263c-.088-.073-.205-.043-.307-.029-.13.03-2.173 1.386-6.154 4.069-.583.394-1.108.598-1.575.583-.525-.014-1.517-.292-2.26-.54-.919-.291-1.634-.451-1.575-.962.029-.262.394-.525 1.079-.802 4.258-1.852 7.087-3.077 8.502-3.66 4.054-1.692 4.885-1.984 5.44-1.984.116 0 .393.03.568.175.146.117.19.277.204.394-.014.088.015.35 0 .554z"/></svg>