<svg width="29" height="30" xmlns="http://www.w3.org/2000/svg"><path fill-rule="evenodd" clip-rule="evenodd" d="M21.319.833a31.937 31.937 0 00-13.934 0l-.495.11a7.153 7.153 0 00-5.372 5.22 28.39 28.39 0 000 13.966 7.153 7.153 0 005.022 5.134l.678 4.048a.73.73 0 001.205.423l3.983-3.563c2.99.183 5.99-.056 8.913-.71l.496-.11a7.153 7.153 0 005.372-5.22 28.392 28.392 0 000-13.967 7.153 7.153 0 00-5.374-5.22L21.32.833zM8.615 6.045a1.199 1.199 0 00-.783.154h-.02a5.99 5.99 0 00-1.46 1.2c-.35.405-.54.813-.589 1.207-.03.233-.009.47.06.692l.026.015c.394 1.156.907 2.27 1.534 3.316a19.5 19.5 0 002.96 4.047l.036.05.055.04.034.04.04.035a19.778 19.778 0 004.058 2.975c1.684.917 2.706 1.35 3.32 1.531v.009c.18.055.343.08.508.08a2.348 2.348 0 001.405-.604c.474-.42.875-.914 1.188-1.464v-.01c.293-.554.194-1.076-.23-1.43a17.683 17.683 0 00-2.743-1.97c-.653-.354-1.316-.14-1.585.22l-.573.723c-.294.358-.828.309-.828.309l-.015.008c-3.982-1.016-5.046-5.048-5.046-5.048s-.05-.549.32-.829l.717-.577c.344-.28.584-.942.215-1.595a17.22 17.22 0 00-1.965-2.742 1.09 1.09 0 00-.641-.384l.002.002zm6.73-1.753a.73.73 0 000 1.458c1.844 0 3.375.602 4.587 1.757a6.461 6.461 0 011.426 2.2c.32.82.466 1.697.428 2.575a.729.729 0 101.458.061 7.815 7.815 0 00-.526-3.164 7.937 7.937 0 00-1.756-2.704l-.015-.015c-1.503-1.436-3.406-2.168-5.603-2.168zm-.05 2.397a.73.73 0 000 1.459h.024c1.33.094 2.299.538 2.977 1.266.695.75 1.056 1.681 1.028 2.833a.73.73 0 001.458.034c.035-1.513-.452-2.818-1.417-3.86V8.42C18.378 7.36 17.023 6.8 15.392 6.69l-.024-.003-.073.001zm-.028 2.443a.729.729 0 10-.076 1.456c.61.032 1 .215 1.244.462.247.248.43.646.464 1.268a.728.728 0 101.455-.077c-.046-.875-.32-1.648-.882-2.216-.564-.57-1.333-.846-2.205-.893z"/></svg>