<svg width="31" height="31" xmlns="http://www.w3.org/2000/svg"><path d="M19.981.917h-8.948C2.86.917.917 2.86.917 11.018v8.949c0 8.17 1.929 10.116 10.101 10.116h8.949c8.17 0 10.116-1.93 10.116-10.102v-8.948c0-8.173-1.93-10.116-10.102-10.116zm4.482 20.81h-2.128c-.805 0-1.047-.652-2.49-2.096-1.26-1.215-1.793-1.366-2.112-1.366-.44 0-.562.12-.562.729v1.913c0 .518-.168.821-1.52.821a8.3 8.3 0 01-6.486-3.889 16.954 16.954 0 01-3.357-7.048c0-.32.12-.608.729-.608h2.126c.547 0 .744.243.958.805 1.033 3.039 2.794 5.681 3.509 5.681.274 0 .394-.12.394-.805v-3.13c-.09-1.427-.849-1.548-.849-2.064a.526.526 0 01.545-.487h3.343c.456 0 .608.227.608.774v4.223c0 .457.197.609.334.609.274 0 .486-.152.987-.654a17.502 17.502 0 002.614-4.346.916.916 0 01.926-.606h2.127c.638 0 .773.32.638.774a26.542 26.542 0 01-2.856 4.907c-.229.35-.32.533 0 .942.212.32.957.943 1.459 1.535a9.458 9.458 0 011.792 2.49c.182.593-.123.896-.73.896z"/></svg>