<svg xmlns="http://www.w3.org/2000/svg" width="30" height="30" viewBox="0 0 7.937 7.938"><g><path d="M7.934 1.805a4.206 4.206 0 00-.041-.51A1.53 1.53 0 006.647.047a4.176 4.176 0 00-.513-.04A6.54 6.54 0 005.924 0L2.013 0a6.54 6.54 0 00-.21.004c-.17.003-.34.017-.508.04A1.53 1.53 0 00.047 1.29c-.025.171-.039.342-.042.514a7.957 7.957 0 00-.004.21L0 5.923c0 .044.001.138.004.21.003.17.017.34.04.509A1.53 1.53 0 001.29 7.891c.17.024.342.038.514.042.072.003.166.004.21.004h3.909c.043 0 .137 0 .21-.003.17-.004.34-.017.509-.041a1.53 1.53 0 001.25-1.246 4.18 4.18 0 00.041-.513c.003-.073.004-.167.004-.21V2.014a6.55 6.55 0 00-.003-.21zM4.054 6.73c-.473 0-.938-.118-1.352-.344l-1.5.393.401-1.466A2.83 2.83 0 114.055 6.73z"/><path d="M4.056 1.548a2.352 2.352 0 00-1.993 3.603l.056.088-.238.868.89-.233.086.05a2.352 2.352 0 101.199-4.377zM5.44 4.91a.728.728 0 01-.477.336.97.97 0 01-.446-.028 4.08 4.08 0 01-.402-.149 3.151 3.151 0 01-1.208-1.067 1.375 1.375 0 01-.289-.731.793.793 0 01.248-.59.26.26 0 01.188-.088c.047 0 .094 0 .136.002.043.002.101-.016.158.122.06.141.201.49.219.524a.13.13 0 01.006.124.483.483 0 01-.071.118c-.036.041-.074.092-.106.124-.036.035-.072.073-.031.144.106.182.238.347.393.49.168.149.36.268.569.35.07.036.112.03.153-.017.041-.047.176-.207.224-.277.047-.07.094-.059.158-.036.065.024.413.195.484.23.07.036.118.053.135.083a.59.59 0 01-.041.336z"/></g></svg>