<svg width="30" height="30" xmlns="http://www.w3.org/2000/svg"><path d="M26.5 28.833L17.167 19.5a9.932 9.932 0 01-2.875 1.583 10.159 10.159 0 01-3.459.584c-3.027 0-5.59-1.049-7.686-3.145C1.049 16.424 0 13.862 0 10.833c0-3.027 1.049-5.59 3.147-7.688C5.243 1.048 7.806 0 10.833 0c3.028 0 5.59 1.048 7.689 3.145 2.096 2.098 3.145 4.66 3.145 7.688 0 1.223-.195 2.375-.584 3.459a9.932 9.932 0 01-1.583 2.875l9.375 9.375c.306.305.458.68.458 1.125 0 .444-.166.833-.5 1.166-.305.306-.694.459-1.166.459-.473 0-.861-.153-1.167-.459zm-15.667-10.5c2.084 0 3.855-.729 5.314-2.186 1.457-1.46 2.186-3.23 2.186-5.314 0-2.083-.729-3.854-2.186-5.313-1.46-1.458-3.23-2.187-5.314-2.187-2.083 0-3.854.73-5.313 2.187-1.458 1.459-2.187 3.23-2.187 5.313 0 2.084.73 3.855 2.187 5.314 1.459 1.457 3.23 2.186 5.313 2.186z"/></svg>