<svg width="14" height="22" viewBox="0 0 14 22" fill="none" xmlns="http://www.w3.org/2000/svg">
<path d="M3.11813 21.3747L12.7226 11.7987C12.8366 11.6847 12.9172 11.5612 12.9643 11.4282C13.0122 11.2952 13.0361 11.1527 13.0361 11.0007C13.0361 10.8487 13.0122 10.7062 12.9643 10.5732C12.9172 10.4402 12.8366 10.3167 12.7226 10.2027L3.11813 0.598219C2.85213 0.332219 2.51963 0.199219 2.12063 0.199219C1.72163 0.199219 1.37963 0.341719 1.09463 0.626719C0.809632 0.911719 0.667132 1.24422 0.667132 1.62422C0.667132 2.00422 0.809632 2.33672 1.09463 2.62172L9.47363 11.0007L1.09463 19.3797C0.828632 19.6457 0.695632 19.9733 0.695632 20.3624C0.695632 20.7523 0.838132 21.0897 1.12313 21.3747C1.40813 21.6597 1.74063 21.8022 2.12063 21.8022C2.50063 21.8022 2.83313 21.6597 3.11813 21.3747Z" fill="#202020"/>
</svg>
