<svg width="14" height="22" viewBox="0 0 14 22" fill="none" xmlns="http://www.w3.org/2000/svg">
<path d="M3.43747 21.3747L13.042 11.7987C13.156 11.6847 13.2365 11.5612 13.2836 11.4282C13.3315 11.2952 13.3555 11.1527 13.3555 11.0007C13.3555 10.8487 13.3315 10.7062 13.2836 10.5732C13.2365 10.4402 13.156 10.3167 13.042 10.2027L3.43747 0.598219C3.17147 0.332219 2.83897 0.199219 2.43997 0.199219C2.04097 0.199219 1.69897 0.341719 1.41397 0.626719C1.12897 0.911719 0.986468 1.24422 0.986468 1.62422C0.986468 2.00422 1.12897 2.33672 1.41397 2.62172L9.79297 11.0007L1.41397 19.3797C1.14797 19.6457 1.01497 19.9733 1.01497 20.3624C1.01497 20.7523 1.15747 21.0897 1.44247 21.3747C1.72747 21.6597 2.05997 21.8022 2.43997 21.8022C2.81997 21.8022 3.15247 21.6597 3.43747 21.3747Z" fill="#202020"/>
</svg>
