<svg width="28" height="28" viewBox="0 0 28 28" fill="none" xmlns="http://www.w3.org/2000/svg">
<path d="M10.4375 24.3747L20.042 14.7987C20.156 14.6847 20.2365 14.5612 20.2836 14.4282C20.3315 14.2952 20.3555 14.1527 20.3555 14.0007C20.3555 13.8487 20.3315 13.7062 20.2836 13.5732C20.2365 13.4402 20.156 13.3167 20.042 13.2027L10.4375 3.59822C10.1715 3.33222 9.83897 3.19922 9.43997 3.19922C9.04097 3.19922 8.69897 3.34172 8.41397 3.62672C8.12897 3.91172 7.98647 4.24422 7.98647 4.62422C7.98647 5.00422 8.12897 5.33672 8.41397 5.62172L16.793 14.0007L8.41397 22.3797C8.14797 22.6457 8.01497 22.9733 8.01497 23.3624C8.01497 23.7523 8.15747 24.0897 8.44247 24.3747C8.72747 24.6597 9.05997 24.8022 9.43997 24.8022C9.81997 24.8022 10.1525 24.6597 10.4375 24.3747Z" fill="#202020"/>
</svg>
