<svg width="28" height="28" viewBox="0 0 28 28" fill="none" xmlns="http://www.w3.org/2000/svg">
<path d="M17.5625 24.3747L7.95803 14.7987C7.84403 14.6847 7.76347 14.5612 7.71635 14.4282C7.66847 14.2952 7.64453 14.1527 7.64453 14.0007C7.64453 13.8487 7.66847 13.7062 7.71635 13.5732C7.76347 13.4402 7.84403 13.3167 7.95803 13.2027L17.5625 3.59822C17.8285 3.33222 18.161 3.19922 18.56 3.19922C18.959 3.19922 19.301 3.34172 19.586 3.62672C19.871 3.91172 20.0135 4.24422 20.0135 4.62422C20.0135 5.00422 19.871 5.33672 19.586 5.62172L11.207 14.0007L19.586 22.3797C19.852 22.6457 19.985 22.9733 19.985 23.3624C19.985 23.7523 19.8425 24.0897 19.5575 24.3747C19.2725 24.6597 18.94 24.8022 18.56 24.8022C18.18 24.8022 17.8475 24.6597 17.5625 24.3747Z" fill="#202020"/>
</svg>
