<svg width="31" height="31" viewBox="0 0 31 31" fill="none" xmlns="http://www.w3.org/2000/svg">
<path d="M15.4998 0.916504C7.44984 0.916504 0.916504 7.44984 0.916504 15.4998C0.916504 23.5498 7.44984 30.0832 15.4998 30.0832C23.5498 30.0832 30.0832 23.5498 30.0832 15.4998C30.0832 7.44984 23.5498 0.916504 15.4998 0.916504ZM22.2665 10.8332C22.0478 13.1373 21.0998 18.7373 20.6186 21.3186C20.4144 22.4123 20.0061 22.7769 19.6269 22.8207C18.7811 22.8936 18.1394 22.2665 17.3228 21.7269C16.0394 20.8811 15.3103 20.3561 14.0707 19.5394C12.6269 18.5915 13.5603 18.0665 14.3915 17.2207C14.6103 17.0019 18.3436 13.604 18.4165 13.2978C18.4266 13.2514 18.4253 13.2032 18.4126 13.1575C18.3999 13.1117 18.3762 13.0698 18.3436 13.0353C18.2561 12.9623 18.1394 12.9915 18.0373 13.0061C17.9061 13.0353 15.8644 14.3915 11.8832 17.0748C11.2998 17.4686 10.7748 17.6728 10.3082 17.6582C9.78317 17.6436 8.7915 17.3665 8.04775 17.1186C7.129 16.8269 6.41442 16.6665 6.47275 16.1561C6.50192 15.8936 6.8665 15.6311 7.55192 15.354C11.8103 13.5019 14.6394 12.2769 16.054 11.6936C20.1082 10.0019 20.9394 9.71025 21.4936 9.71025C21.6103 9.71025 21.8873 9.73942 22.0623 9.88525C22.2082 10.0019 22.2519 10.1623 22.2665 10.279C22.2519 10.3665 22.2811 10.629 22.2665 10.8332Z" fill="#F3F3F3"/>
</svg>
