<svg width="29" height="30" viewBox="0 0 29 30" fill="none" xmlns="http://www.w3.org/2000/svg">
<path fill-rule="evenodd" clip-rule="evenodd" d="M21.319 0.832688C16.7308 -0.192927 11.9728 -0.192927 7.38465 0.832688L6.89028 0.942063C5.59968 1.23061 4.41433 1.87129 3.46592 2.79293C2.5175 3.71457 1.84315 4.88109 1.51778 6.1629C0.354752 10.7457 0.354752 15.5465 1.51778 20.1294C1.82807 21.3518 2.45608 22.4705 3.33812 23.372C4.22016 24.2735 5.32487 24.9258 6.54028 25.2627L7.2184 29.311C7.24005 29.4396 7.29576 29.56 7.37974 29.6597C7.46372 29.7594 7.57289 29.8347 7.6959 29.8779C7.8189 29.9211 7.95122 29.9305 8.0791 29.9052C8.20698 29.8799 8.32573 29.8207 8.42298 29.7339L12.4057 26.1712C15.3954 26.3537 18.3959 26.1146 21.319 25.461L21.8149 25.3516C23.1055 25.0631 24.2908 24.4224 25.2392 23.5008C26.1876 22.5791 26.862 21.4126 27.1874 20.1308C28.3503 15.5479 28.3503 10.7472 27.1874 6.16435C26.8619 4.88236 26.1873 3.71571 25.2386 2.79406C24.2899 1.8724 23.1043 1.23183 21.8134 0.943521L21.319 0.832688ZM8.61548 6.04477C8.34445 6.00532 8.06808 6.05988 7.83236 6.19935H7.81194C7.26507 6.52019 6.77215 6.92415 6.35215 7.39956C6.00215 7.80352 5.81257 8.21185 5.76298 8.6056C5.73382 8.83894 5.75423 9.07519 5.82278 9.29831L5.84903 9.3129C6.24278 10.4694 6.75611 11.5821 7.38319 12.6291C8.19177 14.0999 9.18679 15.4601 10.3436 16.676L10.3786 16.7256L10.434 16.7664L10.4676 16.8058L10.5084 16.8408C11.7286 18.0011 13.092 19.0009 14.5655 19.8158C16.2499 20.7331 17.2721 21.1662 17.8861 21.3471V21.3558C18.0655 21.4112 18.2288 21.436 18.3936 21.436C18.9165 21.3974 19.4114 21.1848 19.7994 20.8323C20.2734 20.4123 20.6744 19.9179 20.9865 19.3681V19.3579C21.2796 18.8037 21.1805 18.2816 20.7576 17.9273C19.9081 17.185 18.9895 16.5258 18.0144 15.9585C17.3611 15.6041 16.6976 15.8185 16.4292 16.1773L15.8561 16.9006C15.5615 17.2594 15.0278 17.2098 15.0278 17.2098L15.0132 17.2185C11.0305 16.2021 9.96736 12.1698 9.96736 12.1698C9.96736 12.1698 9.91777 11.6214 10.2867 11.3414L11.0042 10.7639C11.3484 10.4839 11.5876 9.82185 11.2186 9.16852C10.6551 8.19255 9.99717 7.27426 9.25423 6.42685C9.0922 6.22742 8.86495 6.09159 8.61257 6.04331L8.61548 6.04477ZM15.3442 4.29185C15.1508 4.29185 14.9654 4.36868 14.8286 4.50542C14.6919 4.64217 14.6151 4.82763 14.6151 5.02102C14.6151 5.21441 14.6919 5.39987 14.8286 5.53662C14.9654 5.67336 15.1508 5.75019 15.3442 5.75019C17.189 5.75019 18.7203 6.35248 19.9321 7.50748C20.5549 8.13894 21.0405 8.88706 21.3584 9.70665C21.6778 10.5277 21.8236 11.4041 21.7857 12.2821C21.7817 12.3778 21.7965 12.4734 21.8295 12.5634C21.8624 12.6534 21.9127 12.7361 21.9776 12.8066C22.1086 12.9491 22.2908 13.0337 22.4842 13.0419C22.6776 13.05 22.8663 12.9809 23.0088 12.8499C23.1513 12.7189 23.2359 12.5367 23.244 12.3433C23.2893 11.2634 23.11 10.1858 22.7176 9.17873C22.3234 8.16684 21.7258 7.24661 20.9617 6.47498L20.9471 6.4604C19.4436 5.02394 17.5405 4.29185 15.3442 4.29185ZM15.2946 6.68935C15.1013 6.68935 14.9158 6.76618 14.779 6.90292C14.6423 7.03967 14.5655 7.22513 14.5655 7.41852C14.5655 7.61191 14.6423 7.79737 14.779 7.93412C14.9158 8.07086 15.1013 8.14769 15.2946 8.14769H15.3194C16.6494 8.24248 17.6178 8.68581 18.2959 9.41352C18.9915 10.1631 19.3517 11.095 19.324 12.2471C19.3196 12.4404 19.3921 12.6277 19.5257 12.7676C19.6593 12.9075 19.843 12.9886 20.0364 12.993C20.2298 12.9974 20.417 12.9249 20.5569 12.7913C20.6968 12.6577 20.7779 12.474 20.7824 12.2806C20.8174 10.7683 20.3303 9.4631 19.3649 8.42185V8.41894C18.3776 7.36019 17.0228 6.80019 15.3924 6.69081L15.3676 6.6879L15.2946 6.68935ZM15.2669 9.13206C15.1694 9.12345 15.071 9.13459 14.9779 9.16482C14.8847 9.19505 14.7985 9.24374 14.7246 9.30799C14.6506 9.37225 14.5904 9.45074 14.5475 9.53879C14.5045 9.62684 14.4798 9.72264 14.4747 9.82047C14.4696 9.9183 14.4842 10.0161 14.5178 10.1082C14.5514 10.2002 14.6031 10.2845 14.67 10.3561C14.7369 10.4277 14.8175 10.4851 14.907 10.5249C14.9965 10.5646 15.0932 10.5859 15.1911 10.5875C15.8007 10.6196 16.1901 10.8033 16.4351 11.0498C16.6815 11.2977 16.8653 11.6958 16.8988 12.3185C16.9006 12.4164 16.9221 12.5129 16.962 12.6022C17.0019 12.6916 17.0594 12.772 17.1311 12.8387C17.2027 12.9054 17.287 12.957 17.379 12.9904C17.471 13.0238 17.5688 13.0383 17.6665 13.0331C17.7643 13.0279 17.8599 13.0031 17.9479 12.9601C18.0358 12.9172 18.1142 12.857 18.1784 12.7831C18.2426 12.7092 18.2912 12.6231 18.3214 12.53C18.3516 12.4369 18.3628 12.3387 18.3542 12.2412C18.3076 11.3662 18.0334 10.5933 17.4719 10.0246C16.9076 9.45581 16.139 9.17873 15.2669 9.13206Z" fill="#F3F3F3"/>
</svg>
