<svg width="31" height="31" viewBox="0 0 31 31" fill="none" xmlns="http://www.w3.org/2000/svg">
<path d="M19.9813 0.916504H11.033C2.86046 0.916504 0.916504 2.86046 0.916504 11.0184V19.9667C0.916504 28.1378 2.84588 30.0832 11.0184 30.0832H19.9667C28.1378 30.0832 30.0832 28.1538 30.0832 19.9813V11.033C30.0832 2.86046 28.1538 0.916504 19.9813 0.916504ZM24.4628 21.7269H22.335C21.53 21.7269 21.288 21.075 19.8442 19.6313C18.5842 18.4165 18.0519 18.2648 17.7325 18.2648C17.2921 18.2648 17.1711 18.3859 17.1711 18.994V20.9073C17.1711 21.425 17.0034 21.7284 15.6515 21.7284C14.3395 21.6402 13.0672 21.2416 11.9395 20.5654C10.8117 19.8892 9.86071 18.9547 9.16484 17.839C7.51279 15.7828 6.36329 13.3694 5.80775 10.7909C5.80775 10.4715 5.9288 10.1828 6.53692 10.1828H8.66317C9.21004 10.1828 9.40692 10.4263 9.62129 10.9878C10.6538 14.0269 12.4155 16.6694 13.13 16.6694C13.4042 16.6694 13.5238 16.5484 13.5238 15.8644V12.7348C13.4334 11.3071 12.675 11.1861 12.675 10.6698C12.6848 10.5337 12.7472 10.4067 12.849 10.3157C12.9508 10.2248 13.0841 10.1771 13.2205 10.1828H16.563C17.0194 10.1828 17.1711 10.4103 17.1711 10.9571V15.1805C17.1711 15.6369 17.368 15.7886 17.505 15.7886C17.7792 15.7886 17.9907 15.6369 18.4923 15.1353C19.5698 13.8212 20.4502 12.3572 21.1057 10.7894C21.1727 10.6011 21.2994 10.4399 21.4666 10.3303C21.6339 10.2208 21.8323 10.169 22.0317 10.1828H24.1594C24.7967 10.1828 24.9323 10.5021 24.7967 10.9571C24.0231 12.6903 23.0658 14.3354 21.9413 15.8644C21.7123 16.2144 21.6205 16.3967 21.9413 16.8065C22.1528 17.1259 22.898 17.7486 23.3996 18.3407C24.1287 19.0679 24.734 19.9092 25.1919 20.8315C25.3742 21.4236 25.0694 21.7269 24.4628 21.7269Z" fill="#F3F3F3"/>
</svg>
