<?xml version="1.0" encoding="UTF-8" standalone="no"?>
<!-- Created with Inkscape (http://www.inkscape.org/) -->

<svg
   xmlns:dc="http://purl.org/dc/elements/1.1/"
   xmlns:cc="http://creativecommons.org/ns#"
   xmlns:rdf="http://www.w3.org/1999/02/22-rdf-syntax-ns#"
   xmlns:svg="http://www.w3.org/2000/svg"
   xmlns="http://www.w3.org/2000/svg"
   xmlns:sodipodi="http://sodipodi.sourceforge.net/DTD/sodipodi-0.dtd"
   xmlns:inkscape="http://www.inkscape.org/namespaces/inkscape"
   width="30"
   height="30"
   viewBox="0 0 7.9374998 7.9375002"
   version="1.1"
   id="svg8"
   inkscape:version="0.92.5 (2060ec1f9f, 2020-04-08)"
   sodipodi:docname="drawing.svg">
  <defs
     id="defs2" />
  <sodipodi:namedview
     id="base"
     pagecolor="#ffffff"
     bordercolor="#666666"
     borderopacity="1.0"
     inkscape:pageopacity="0.0"
     inkscape:pageshadow="2"
     inkscape:zoom="44.8"
     inkscape:cx="23.900998"
     inkscape:cy="24.512516"
     inkscape:document-units="mm"
     inkscape:current-layer="layer1"
     showgrid="false"
     units="px"
     inkscape:window-width="3440"
     inkscape:window-height="1375"
     inkscape:window-x="0"
     inkscape:window-y="0"
     inkscape:window-maximized="1" />
  <metadata
     id="metadata5">
    <rdf:RDF>
      <cc:Work
         rdf:about="">
        <dc:format>image/svg+xml</dc:format>
        <dc:type
           rdf:resource="http://purl.org/dc/dcmitype/StillImage" />
        <dc:title></dc:title>
      </cc:Work>
    </rdf:RDF>
  </metadata>
  <g
     inkscape:label="Layer 1"
     inkscape:groupmode="layer"
     id="layer1"
     transform="translate(0,-289.06248)">
    <g
       style="fill:none"
       id="g1223"
       transform="matrix(0.27214255,0,0,0.27215654,-0.79370375,288.26874)">
      <path
         id="path1209"
         d="M 32.0686,9.54755 C 32.0564,8.92188 32.0063,8.29754 31.9184,7.67796 31.8136,7.12686 31.6356,6.59226 31.389,6.08838 30.8492,5.02278 29.9839,4.15693 28.9186,3.6165 28.4179,3.37108 27.8868,3.19355 27.3392,3.08859 26.7149,2.99887 26.0856,2.94774 25.455,2.93546 25.1882,2.92525 24.8425,2.92088 24.6821,2.92088 L 10.3205,2.9165 C 10.16,2.9165 9.81442,2.92088 9.54755,2.93109 8.92188,2.94314 8.29753,2.9933 7.67796,3.0813 7.12686,3.18606 6.59226,3.3641 6.08838,3.61067 5.02284,4.15055 4.15701,5.01586 3.6165,6.08109 3.37115,6.58175 3.19361,7.11289 3.08859,7.66046 2.99847,8.28475 2.94684,8.914 2.934,9.54463 2.92525,9.8115 2.91942,10.1571 2.91942,10.3175 L 2.9165,24.6792 c 0,0.1604 0.00438,0.5061 0.01459,0.7729 0.01205,0.6257 0.06221,1.25 0.15021,1.8696 0.10478,0.5511 0.28282,1.0857 0.52937,1.5896 0.53988,1.0655 1.40519,1.9314 2.47042,2.4719 0.50068,0.2453 1.03181,0.4228 1.57937,0.5279 0.62431,0.0897 1.25356,0.1408 1.88417,0.1531 0.26687,0.0102 0.61247,0.0146 0.77287,0.0146 l 14.3617,0.0029 c 0.1604,0 0.5061,-0.0044 0.7729,-0.0146 0.6257,-0.0121 1.25,-0.0622 1.8696,-0.1502 0.5511,-0.1048 1.0857,-0.2828 1.5896,-0.5294 1.0661,-0.5396 1.9324,-1.4049 2.4733,-2.4704 0.2454,-0.5006 0.423,-1.0318 0.5279,-1.5793 0.0902,-0.6243 0.1418,-1.2536 0.1546,-1.8842 0.0088,-0.2669 0.0146,-0.6125 0.0146,-0.7729 l 0.0015,-14.3602 c 0,-0.1605 -0.0044,-0.50608 -0.0146,-0.77295 z M 17.8163,27.6455 h -0.0044 c -1.7359,-4e-4 -3.4441,-0.4356 -4.9685,-1.2659 L 7.33088,27.8248 8.80671,22.4392 C 7.66404,20.4563 7.20746,18.1519 7.50777,15.8831 7.80808,13.6143 8.8485,11.508 10.4677,9.89074 c 1.6192,-1.61729 3.7268,-2.65521 5.9959,-2.95282 2.2691,-0.29761 4.573,0.16171 6.5546,1.30674 1.9815,1.14503 3.5299,2.91184 4.4051,5.02644 0.8752,2.1145 1.0283,4.4588 0.4356,6.6693 -0.5926,2.2105 -1.898,4.1637 -3.7137,5.5567 -1.8158,1.3931 -4.0404,2.1482 -6.3289,2.1484 z"
         inkscape:connector-curvature="0"
         style="fill:#f3f3f3" />
      <path
         id="path1211"
         d="M 17.8209,8.60546 C 16.2766,8.60501 14.7604,9.01828 13.43,9.8023 c -1.3304,0.784 -2.4265,1.9101 -3.1743,3.2613 -0.74773,1.3511 -1.11986,2.8779 -1.07767,4.4216 0.0422,1.5436 0.49718,3.0478 1.31767,4.3561 l 0.2056,0.3267 -0.87355,3.1879 3.27105,-0.8575 0.315,0.1866 c 1.3316,0.7887 2.8507,1.2047 4.3983,1.2046 h 0.0044 c 2.2922,4e-4 4.4907,-0.9098 6.1118,-2.5304 1.6211,-1.6205 2.5321,-3.8187 2.5325,-6.1109 4e-4,-2.2922 -0.9099,-4.4907 -2.5304,-6.1118 C 22.3098,9.51534 20.1116,8.60439 17.8194,8.604 Z m 5.0808,12.35204 c -0.1911,0.3157 -0.4456,0.5884 -0.7472,0.801 -0.3017,0.2126 -0.6441,0.3604 -1.0057,0.4343 -0.5459,0.0936 -1.1062,0.0586 -1.6363,-0.1021 -0.5027,-0.1567 -0.9967,-0.3397 -1.4802,-0.5484 -1.7941,-0.9004 -3.3234,-2.2517 -4.4377,-3.9214 -0.6078,-0.773 -0.9768,-1.7066 -1.0616,-2.6863 -0.007,-0.4043 0.0702,-0.8057 0.2269,-1.1786 0.1567,-0.3729 0.3893,-0.709 0.6831,-0.987 0.0868,-0.099 0.1931,-0.179 0.3123,-0.235 0.1192,-0.056 0.2487,-0.0867 0.3804,-0.0902 0.172,0 0.3456,0 0.4973,0.0087 0.1604,0.0073 0.3733,-0.0612 0.5833,0.4463 0.2187,0.5192 0.7379,1.7981 0.8021,1.9279 0.0412,0.0681 0.0647,0.1453 0.0686,0.2247 0.0038,0.0795 -0.0123,0.1586 -0.0468,0.2303 -0.0654,0.156 -0.1528,0.3019 -0.2595,0.4331 -0.1313,0.1517 -0.2727,0.3384 -0.3894,0.455 -0.1313,0.1298 -0.2654,0.2698 -0.1152,0.5294 0.3901,0.668 0.8772,1.2745 1.4452,1.7996 0.6163,0.548 1.3235,0.9842 2.0898,1.2892 0.2596,0.1312 0.4112,0.1079 0.5629,-0.0657 0.1517,-0.1735 0.649,-0.7583 0.8225,-1.0179 0.1735,-0.2596 0.3456,-0.2158 0.5833,-0.1298 0.2377,0.0861 1.5167,0.7146 1.7763,0.8459 0.2596,0.1312 0.4331,0.1939 0.4973,0.3018 0.0711,0.4177 0.0184,0.8471 -0.1517,1.2352 z"
         inkscape:connector-curvature="0"
         style="fill:#f3f3f3" />
    </g>
  </g>
</svg>
